<?xml version="1.0" encoding="UTF-8"?>
<svg width="980px" height="128px" viewBox="0 0 980 128" version="1.1" xmlns="http://www.w3.org/2000/svg" xmlns:xlink="http://www.w3.org/1999/xlink">
    <!-- Generator: Sketch 47.1 (45422) - http://www.bohemiancoding.com/sketch -->
    <title>gitdvcs</title>
    <desc>Created with Sketch.</desc>
    <defs></defs>
    <g id="gitdvcs.com" stroke="none" stroke-width="1" fill="none" fill-rule="evenodd">
        <g id="gitdvcs" fill="#FF5722">
            <path d="M376.352,92.256 L375.84,87.52 C390.688,86.368 392.672,84.576 392.8,75.68 C390.56,77.408 387.552,78.752 383.84,78.752 C377.056,78.752 372,73.76 372,65.504 C372,55.392 379.744,49.12 388.704,49.12 C391.776,49.12 394.72,49.632 397.856,50.592 C397.92,53.088 397.92,70.24 397.92,73.888 C397.92,84.704 393.632,91.36 376.352,92.256 Z M385.76,74.592 C388.256,74.592 390.752,73.696 392.8,72.416 C392.8,68.128 392.736,59.36 392.8,54.496 C390.752,53.92 388.832,53.536 386.848,53.536 C381.344,53.536 377.12,57.312 377.12,64.288 C377.12,71.2 380.832,74.592 385.76,74.592 Z M424.736,44.768 L425.312,36.064 L419.808,36.064 L419.424,44.768 L424.736,44.768 Z M436.384,81.184 L436.768,77.216 L424.992,77.216 L424.992,49.824 L408.48,49.824 L408.096,53.472 L419.808,53.984 L419.808,77.216 L408.032,77.216 L408.032,81.184 L436.384,81.184 Z M468.128,81.696 L468.704,77.344 C458.208,77.152 455.2,75.744 455.2,70.304 L455.2,53.856 L468,53.856 L468,49.824 L455.2,49.824 L455.2,40.672 L450.016,41.12 L450.016,49.824 L444.064,49.824 L443.552,53.856 L450.016,53.856 L450.016,71.136 C450.016,78.88 454.56,81.888 468.128,81.696 Z M491.232,77.664 C493.856,77.664 496.288,76.512 498.208,74.976 C498.08,69.536 498.016,63.2 498.016,54.432 C496.224,53.856 494.496,53.536 492.832,53.536 C487.072,53.536 482.592,57.824 482.592,65.76 C482.592,73.76 486.176,77.664 491.232,77.664 Z M498.784,81.312 L498.464,78.048 C496.224,80.16 493.088,81.952 489.248,81.952 C482.464,81.952 477.472,76.384 477.472,67.104 C477.472,55.648 485.664,49.12 495.2,49.12 C496.16,49.12 497.12,49.184 498.016,49.312 L498.016,36.448 L503.2,36 L503.2,49.952 C503.2,64.032 503.328,73.952 503.648,81.056 L498.784,81.312 Z M527.072,76.32 L526.56,76.32 C523.104,67.424 519.968,58.464 517.088,49.696 L511.904,50.016 C515.36,60.448 519.2,70.944 523.424,81.44 L529.952,81.44 C534.176,71.008 538.208,60.32 541.664,49.824 L536.416,49.824 C533.6,58.592 530.528,67.488 527.072,76.32 Z M549.408,66.016 C549.408,75.616 554.72,82.72 573.728,81.44 L574.304,77.088 C558.944,77.792 554.528,73.568 554.528,65.312 C554.528,58.656 557.664,54.24 573.856,54.304 L573.472,49.376 C555.232,49.76 549.408,57.376 549.408,66.016 Z M607.456,49.568 C591.456,48.352 586.08,53.472 586.08,58.464 C586.08,66.336 603.616,67.232 603.616,72.8 C603.616,75.616 599.712,77.92 586.016,76.832 L585.824,81.44 C603.424,82.4 608.992,77.472 608.992,72.352 C608.992,64.352 591.328,62.944 591.328,57.76 C591.328,55.2 594.784,53.024 607.648,54.176 L607.456,49.568 Z"></path>
        </g>
    </g>
</svg>