<?xml version="1.0" encoding="UTF-8"?>
<svg width="200px" height="50px" viewBox="0 0 200 50" version="1.1" xmlns="http://www.w3.org/2000/svg" xmlns:xlink="http://www.w3.org/1999/xlink">
    <!-- Generator: Sketch 42 (36781) - http://www.bohemiancoding.com/sketch -->
    <title>android</title>
    <desc>Created with Sketch.</desc>
    <defs></defs>
    <g id="git.com" stroke="none" stroke-width="1" fill="none" fill-rule="evenodd">
        <g id="android" fill-rule="nonzero" fill="#171219">
            <path d="M110.020875,8.14628401 C111.380351,9.85763868 112.18743,11.92623 112.218511,14.1574517 L87.3245913,14.1574517 C87.3556729,11.9260191 88.1628539,9.85732016 89.5224388,8.14593654 L86.9855471,3.75171992 C86.571347,3.03427318 86.8171771,2.11689221 87.5346238,1.70269217 C88.2520705,1.28849213 89.1694515,1.53432216 89.5836516,2.2517689 L91.7537867,6.01071694 C93.5870407,4.66731084 95.8729052,3.77583442 98.3845498,3.53359619 L101.158552,3.53359619 C103.670405,3.77591813 105.95634,4.66750421 107.789592,6.01099497 L109.960054,2.25173146 C110.374274,1.53429665 111.291662,1.28849307 112.009097,1.70271379 C112.726532,2.1169345 112.972336,3.03432256 112.558115,3.75175737 L110.020875,8.14628401 Z M108.758373,37.076697 L108.893274,37.076697 C110.789256,37.076697 112.316392,35.5222322 112.316392,33.5931066 L112.316392,15.6533818 C112.316392,15.5463912 112.312515,15.4401759 112.303599,15.3358988 L87.2439608,15.3358988 C87.234851,15.4405635 87.2269043,15.5463912 87.2269043,15.6533818 L87.2269043,33.5931066 C87.2269043,35.522426 88.7540399,37.076697 90.6498279,37.076697 L90.7853105,37.076697 L90.7853105,44.1725765 C90.7853105,45.6969986 92.0211294,46.9326237 93.5453577,46.9326237 C95.0697798,46.9326237 96.3055986,45.6969986 96.3055986,44.1725765 L96.3055986,37.076697 L103.238085,37.076697 L103.238085,44.1725765 C103.238085,45.6969986 104.473904,46.9326237 105.998132,46.9326237 C107.522554,46.9326237 108.758373,45.6969986 108.758373,44.1725765 L108.758373,37.076697 Z M82.792028,16.9324233 C84.3162563,16.9324233 85.5520751,18.1682421 85.5520751,19.6926642 L85.5520751,31.5333439 C85.5520751,33.057766 84.3162563,34.2935848 82.792028,34.2935848 C81.2676059,34.2935848 80.0317871,33.057766 80.0317871,31.5335377 L80.0317871,19.692858 C80.0315932,18.1684359 81.2674121,16.9324233 82.792028,16.9324233 Z M116.751656,16.9324233 C118.275884,16.9324233 119.511703,18.1682421 119.511703,19.6926642 L119.511703,31.5333439 C119.511703,33.057766 118.275884,34.2935848 116.751656,34.2935848 C115.227233,34.2935848 113.991415,33.057766 113.991415,31.5335377 L113.991415,19.692858 C113.991415,18.1684359 115.227233,16.9324233 116.751656,16.9324233 Z M96.0637068,9.21921573 L96.0637068,9.21146279 C96.061381,8.44082042 95.4202127,7.81845305 94.6317386,7.82058511 C93.8430706,7.82271717 93.205585,8.44876718 93.2077171,9.21921573 L93.2077171,9.22696867 C93.210043,9.9972234 93.8512112,10.6197846 94.6396853,10.6178464 C95.4285471,10.6157143 96.0660327,9.98947046 96.0637068,9.21921573 Z M106.723226,9.21921573 L106.723226,9.21146279 C106.7209,8.44082042 106.079732,7.81845305 105.291258,7.82058511 C104.50259,7.82271717 103.865104,8.44876718 103.867236,9.21921573 L103.867236,9.22696867 C103.869562,9.9972234 104.51073,10.6197846 105.299204,10.6178464 C106.088066,10.6157143 106.725552,9.98947046 106.723226,9.21921573 Z" id="Combined-Shape"></path>
        </g>
    </g>
</svg>