<?xml version="1.0" encoding="UTF-8"?>
<svg width="200px" height="50px" viewBox="0 0 200 50" version="1.1" xmlns="http://www.w3.org/2000/svg" xmlns:xlink="http://www.w3.org/1999/xlink">
    <!-- Generator: Sketch 42 (36781) - http://www.bohemiancoding.com/sketch -->
    <title>facebook</title>
    <desc>Created with Sketch.</desc>
    <defs></defs>
    <g id="git.com" stroke="none" stroke-width="1" fill="none" fill-rule="evenodd">
        <g id="facebook" fill="#2C3041">
            <path d="M106.420063,30.4466824 C106.223185,31.8386353 105.117099,32.5682588 103.804059,32.4657647 C103.47567,32.4401412 103.17906,32.3725882 102.912421,32.2682824 C101.853876,31.6595294 101.534013,30.6405412 101.441,30.0004706 C101.439966,30.0009882 101.438933,30.0009882 101.438933,30.0015059 C101.366589,29.0112471 101.288561,26.9406588 101.770681,25.9620471 C102.180198,25.2119765 102.894335,24.8035529 103.842039,24.7722353 C105.187893,24.7279765 106.206391,25.3967765 106.406628,26.7651765 C106.584387,27.9710353 106.592655,29.2416 106.420063,30.4466824 Z M105.751917,21.3027059 C104.063722,21.1220471 102.603151,21.6345176 101.368656,23.1217176 L101.368656,14 L96.8980655,14.5422353 L96.8980655,35.6555059 L101.368656,35.6555059 L101.368656,34.4022824 C101.971693,34.8332235 102.558195,35.3524235 103.244169,35.5983059 C105.848806,36.5334353 109.283587,35.7712 110.48527,32.2809647 C111.256765,30.0421412 111.236612,27.7466353 110.655536,25.4827059 C110.011676,22.9674588 108.340792,21.5788706 105.751917,21.3027059 Z" id="Fill-1"></path>
            <path d="M121.784601,30.2196941 C121.769615,30.3128706 121.754113,30.4050118 121.733185,30.4963765 C121.436317,31.8176706 120.478536,32.5325412 119.201409,32.4730118 C117.828168,32.4101176 116.886148,31.6062118 116.753863,30.2316 C116.658265,29.2273647 116.650514,28.2019059 116.73371,27.1971529 C116.864187,25.6110824 117.854264,24.7437647 119.339379,24.7732706 C120.560181,24.7968235 121.429599,25.4896941 121.739903,26.6652706 C122.021268,27.8480941 121.812246,29.9505176 121.784601,30.2196941 Z M121.595473,21.5636 C120.042148,21.1471529 118.473062,21.1523294 116.923095,21.5659294 C114.601892,22.1850353 113.0465,23.6561882 112.54526,25.9964706 C112.271387,27.2735059 112.217129,28.6310353 112.289473,29.9404235 C112.454831,32.9355294 114.303474,35.0690118 117.173198,35.7316 C117.213504,35.7414353 117.255619,35.7484235 117.2967,35.7577412 L117.295666,35.7577412 C117.295666,35.7577412 117.303676,35.7592941 117.316594,35.7618824 C117.426919,35.7841412 117.537501,35.8045882 117.648342,35.8216706 C117.685289,35.8247765 117.72327,35.8278824 117.7597,35.8312471 L117.762801,35.8312471 C117.902062,35.8571294 118.06897,35.8760235 118.244662,35.89 C118.80636,35.9497882 119.521272,35.9922353 120.118109,35.9218353 C120.122243,35.9218353 120.12431,35.9208 120.12741,35.9202824 C120.15764,35.9197647 120.188386,35.9197647 120.218615,35.9176941 C123.18187,35.7634353 125.430213,33.8918824 126.086475,31.0207529 C126.446644,29.4460706 126.446644,27.8633647 126.09836,26.2876471 C125.553456,23.8143294 124.055939,22.2230824 121.595473,21.5636 Z" id="Fill-2"></path>
            <path d="M54.4857211,21.4893176 L51.2948416,21.4893176 L51.2948416,19.3636 C51.5281504,17.3540941 54.8414978,17.7358588 54.8414978,17.7358588 L54.8425312,17.5986824 L54.8414978,17.5831529 L54.8414978,14.2823765 L54.840981,14.2823765 L54.840981,14.2818588 L54.8383973,14.2818588 C54.7244558,14.2546824 48.2476162,12.7149412 46.9609295,17.6530353 C46.9609295,17.6540706 46.9609295,17.6556235 46.9593793,17.6566588 C46.957054,17.6675294 46.9539535,17.6784 46.9513698,17.6890118 C46.7490655,18.3065647 46.7627591,21.1339529 46.7653428,21.4893176 L44,21.4893176 L44,25.2702118 L46.936901,25.2702118 L46.936901,35.5540471 L51.2137131,35.5540471 L51.2137131,25.2702118 L54.4852044,25.2702118 L54.8533828,21.4893176 L54.4857211,21.4893176 Z" id="Fill-3"></path>
            <path d="M64.3182809,30.4259765 C64.1785022,31.7358824 63.1204738,32.5224471 61.869959,32.4730118 C60.5886982,32.4230588 59.7407251,31.7358824 59.46401,30.5041412 C59.1322619,28.7519059 59.5205932,26.6699294 59.5534063,26.5011765 C59.8882549,25.3250824 60.7421704,24.7432471 61.9952689,24.7727529 C63.2258891,24.8004471 64.1743683,25.5298118 64.3131134,26.8068471 C64.443074,28.0013176 64.445916,29.2309882 64.3182809,30.4259765 Z M64.6854258,23.2982353 C64.6329765,23.24 64.581044,23.1840941 64.5363458,23.1372471 L64.5363458,23.1367294 C64.5291114,23.1294824 64.5236857,23.1232706 64.5164513,23.1160235 C64.4541839,23.0513176 64.4105192,23.0080941 64.4105192,23.0080941 C63.4036482,21.9821176 63.0235847,21.7271765 62.2347786,21.4939765 C59.2009885,20.5989647 56.2475517,22.1899529 55.3125077,25.2474353 C54.7378911,27.1262353 54.7296232,29.0601647 55.0665387,30.9625176 C55.7941109,35.0827294 58.8534798,36.4622588 62.1138611,35.7823294 C63.1142729,35.5737176 63.8581224,34.9494353 64.5477141,34.0805647 C64.5477141,34.0805647 64.6099815,34.0044706 64.6859425,33.8564235 L64.6859425,35.6692235 L68.8578561,35.6692235 L68.8578561,21.5053647 L64.6859425,21.5053647 L64.6859425,23.2982353 L64.6854258,23.2982353 Z" id="Fill-4"></path>
            <path d="M81.6004463,34.6543765 C81.4069265,33.9449412 81.1865362,33.2450824 80.9733803,32.5692941 L80.7721094,31.8176706 C80.7721094,31.8176706 75.5429425,34.3321412 74.7275242,29.554 C74.65208,28.7653647 74.675075,27.9513647 74.7835907,27.1730824 C74.9869285,25.7042588 75.8814083,24.9176941 77.3042564,24.7828471 C77.7853428,24.7370353 78.2855487,24.7603294 78.7614678,24.8410824 C79.4094618,24.9505647 80.0422119,25.1462353 80.7514398,25.3214588 C80.9979255,24.5659529 81.2500955,23.8182118 81.4849545,23.0655529 C81.5219015,22.9477882 81.5526477,22.8460706 81.5766762,22.7549647 L81.5771929,22.7549647 L81.69501,22.3028 C81.6655557,22.2424941 81.5942454,22.1803765 81.4986482,22.1195529 L81.4986482,22.1200706 C81.3785057,22.0193882 81.1736177,21.9355294 80.8537546,21.8180235 C80.7258611,21.7714353 80.5974508,21.7297647 80.4690405,21.6893882 C80.3540655,21.6528941 80.2791379,21.6314118 80.2791379,21.6314118 L80.2796547,21.6314118 C78.9058971,21.2377412 77.4954508,21.2074588 76.0627846,21.3586118 C73.0429465,21.6782588 70.9935492,23.4633647 70.4248751,26.4100706 C70.1264568,27.9606824 70.1404088,29.5301882 70.4830085,31.0854588 C70.9961329,33.4143529 72.4052874,34.9191529 74.6962614,35.5920941 C76.1911949,36.0308 77.7230755,36.0528 79.2472049,35.8149412 C79.8882229,35.7145176 80.8075062,35.3816706 81.4673853,35.1445882 L81.7185217,35.0560706 L81.5999295,34.6533412 L81.6004463,34.6543765 Z" id="Fill-5"></path>
            <path d="M91.3451599,27.1818824 L86.5146592,27.1818824 C86.5397211,26.2193176 86.6598636,25.3245647 87.5140375,24.7797412 C88.420919,24.2025647 89.4228811,24.1810824 90.3555997,24.6984706 C91.2983948,25.2202588 91.3722889,26.1626353 91.3451599,27.1818824 Z M95.3661849,29.1129647 C95.3462904,28.1325412 95.3594673,27.1474588 95.2209805,26.1838588 C94.8393668,23.5415294 93.2333338,21.8695294 90.6364488,21.4328941 C89.6453383,21.2667294 88.5971279,21.2887294 87.5899985,21.3850118 C84.8336987,21.6482353 82.7414118,23.3681176 82.3127746,25.9563529 C82.0523368,27.5266353 82.019007,29.1929412 82.2295792,30.7696941 C82.5473753,33.1418118 83.7002259,34.6528235 85.6951069,35.3780471 L85.6961404,35.3780471 C85.7046667,35.3785647 85.7134513,35.3801176 85.7222359,35.3811529 C85.7212024,35.3821882 85.7217191,35.3821882 85.7212024,35.3827059 C86.6317011,35.6555059 91.0878226,36.8225412 95.0160925,34.8456471 L94.8582279,34.2664 C94.8566777,34.2674353 94.8543523,34.2674353 94.8528021,34.2674353 C94.670909,33.4945882 94.452069,32.7302824 94.2461474,31.9641647 L94.2241859,31.8891059 C94.2241859,31.8891059 94.1425407,31.9183529 93.9975947,31.9646824 C93.9944943,31.9652 93.9903603,31.9652 93.9872599,31.9657176 C93.8157016,32.0104941 93.6464688,32.0630353 93.478011,32.1194588 C93.4464898,32.1298118 93.4157436,32.1396471 93.3844808,32.1489647 C92.7897111,32.3166824 91.9399295,32.5234824 91.042091,32.6391765 C90.2886817,32.7152706 89.5277796,32.7183765 88.7593848,32.6526353 C87.5119705,32.4458353 86.5572904,31.7765176 86.603022,30.1940706 L87.3158671,30.1940706 C89.7613468,30.1940706 92.2063098,30.1940706 94.6523063,30.1935529 C94.7104398,30.1935529 94.7696067,30.1940706 94.8274818,30.1930353 L94.826965,30.1940706 C94.826965,30.1940706 95.3524913,30.1873412 95.3744528,30.1821647 C95.3744528,30.1821647 95.373936,30.0431765 95.3744528,30.0263529 L95.3661849,29.1129647 Z" id="Fill-6"></path>
            <polygon id="Fill-7" points="156.327745 21.6528941 151.585607 21.6528941 147.466918 28.1032941 147.466918 14.0126824 142.996328 14.5554353 142.996328 35.6692235 147.466918 35.6692235 147.466918 29.2076941 151.585607 35.6785412 156.327745 35.6785412 151.858188 28.6540706"></polygon>
            <path d="M137.031579,30.2171059 C137.016594,30.3108 137.001091,30.4024235 136.980163,30.4943059 C136.682262,31.8156 135.725515,32.5294353 134.448388,32.4709412 C133.075147,32.4067529 132.133127,31.6031059 132.000583,30.2290118 C131.905244,29.2252941 131.896459,28.1998353 131.979655,27.1950824 C132.112199,25.6087529 133.101242,24.7411765 134.587391,24.7706824 C135.806126,24.7942353 136.676578,25.4871059 136.986881,26.6626824 C137.267213,27.8449882 137.059742,29.9484471 137.031579,30.2171059 Z M136.842969,21.5615294 C135.289385,21.1448235 133.719524,21.1497412 132.169557,21.5636 C129.849387,22.1829647 128.293737,23.6536 127.792497,25.9933647 C127.518883,27.2709176 127.464366,28.6279294 127.536969,29.9378353 C127.701292,32.9329412 129.550969,35.0669412 132.41966,35.7290118 C132.460741,35.7388471 132.502856,35.7458353 132.543937,35.7551529 L132.542903,35.7551529 C132.542903,35.7551529 132.550137,35.7567059 132.563056,35.7592941 C132.67338,35.7815529 132.784997,35.802 132.895838,35.8185647 C132.932785,35.8221882 132.970248,35.8255529 133.007195,35.8276235 C133.008229,35.8286588 133.009262,35.8286588 133.010296,35.8286588 C133.150591,35.8545412 133.316465,35.8739529 133.491124,35.8879294 C134.053856,35.9477176 134.769801,35.9901647 135.365604,35.9197647 C135.368446,35.9187294 135.370513,35.9187294 135.374647,35.9176941 C135.406168,35.9171765 135.435881,35.9171765 135.465077,35.9156235 C138.428849,35.7608471 140.677708,33.8887765 141.33397,31.0186824 C141.694139,29.444 141.694139,27.8610353 141.346889,26.2850588 C140.799918,23.8117412 139.303434,22.2204941 136.842969,21.5615294 Z" id="Fill-8"></path>
        </g>
    </g>
</svg>