<?xml version="1.0" encoding="UTF-8"?>
<svg width="200px" height="50px" viewBox="0 0 200 50" version="1.1" xmlns="http://www.w3.org/2000/svg" xmlns:xlink="http://www.w3.org/1999/xlink">
    <!-- Generator: Sketch 42 (36781) - http://www.bohemiancoding.com/sketch -->
    <title>gnome</title>
    <desc>Created with Sketch.</desc>
    <defs></defs>
    <g id="git.com" stroke="none" stroke-width="1" fill="none" fill-rule="evenodd">
        <g id="gnome" fill-rule="nonzero" fill="#2C3041">
            <path d="M114.394113,2.7087 C105.297575,2.7087 103.591189,15.6650361 108.7085,15.6650361 C113.825071,15.6650361 123.491021,2.7087 114.394113,2.7087 Z M99.2895417,14.0595908 C102.014214,14.2259773 105.003626,3.66154034 99.8826173,4.32597731 C94.7634576,4.99041429 96.5637601,13.8932042 99.2895417,14.0595908 Z M86.8024156,20.624095 C88.7402643,19.7710866 87.0519954,11.4277252 83.7568022,13.7031538 C80.4630879,15.9789521 84.8645669,21.4767336 86.8024156,20.624095 Z M92.2624828,16.2570025 C94.56934,15.7866832 94.6957938,6.32409496 90.5819786,8.02160756 C86.467424,9.71948992 89.9574744,16.7280613 92.2624828,16.2570025 Z M104.3085,37.4328345 C103.966853,34.8250025 113.47418,33.2458092 112.729508,37.1869521 C111.754483,42.3552882 106.542886,46.4350866 102.024567,46.4350866 C92.8400291,46.4350866 84.0378106,35.7545487 85.7582475,28.0560277 C88.2998946,16.6737084 110.619727,14.4341454 111.843962,21.7085655 C113.318886,30.4723303 90.9432223,33.6724983 99.3686677,40.0872546 C102.015323,42.1023807 104.717811,40.5586832 104.3085,37.4328345 Z" id="Combined-Shape"></path>
        </g>
    </g>
</svg>