<?xml version="1.0" encoding="UTF-8"?>
<svg width="200px" height="50px" viewBox="0 0 200 50" version="1.1" xmlns="http://www.w3.org/2000/svg" xmlns:xlink="http://www.w3.org/1999/xlink">
    <!-- Generator: Sketch 42 (36781) - http://www.bohemiancoding.com/sketch -->
    <title>google</title>
    <desc>Created with Sketch.</desc>
    <defs></defs>
    <g id="git.com" stroke="none" stroke-width="1" fill="none" fill-rule="evenodd">
        <g id="google" fill-rule="nonzero" fill="#42A5E8">
            <path d="M93.5833333,25.7266667 C93.5833333,29.9833333 90.2533333,33.12 86.1666667,33.12 C82.08,33.12 78.75,29.9833333 78.75,25.7266667 C78.75,21.44 82.08,18.3333333 86.1666667,18.3333333 C90.2533333,18.3333333 93.5833333,21.44 93.5833333,25.7266667 Z M90.3366667,25.7266667 C90.3366667,23.0666667 88.4066667,21.2466667 86.1666667,21.2466667 C83.9266667,21.2466667 81.9966667,23.0666667 81.9966667,25.7266667 C81.9966667,28.36 83.9266667,30.2066667 86.1666667,30.2066667 C88.4066667,30.2066667 90.3366667,28.3566667 90.3366667,25.7266667 Z" id="Shape"></path>
            <path d="M109.583333,25.7266667 C109.583333,29.9833333 106.253333,33.12 102.166667,33.12 C98.08,33.12 94.75,29.9833333 94.75,25.7266667 C94.75,21.4433333 98.08,18.3333333 102.166667,18.3333333 C106.253333,18.3333333 109.583333,21.44 109.583333,25.7266667 Z M106.336667,25.7266667 C106.336667,23.0666667 104.406667,21.2466667 102.166667,21.2466667 C99.9266667,21.2466667 97.9966667,23.0666667 97.9966667,25.7266667 C97.9966667,28.36 99.9266667,30.2066667 102.166667,30.2066667 C104.406667,30.2066667 106.336667,28.3566667 106.336667,25.7266667 Z" id="Shape"></path>
            <path d="M124.916667,18.78 L124.916667,32.0533333 C124.916667,37.5133333 121.696667,39.7433333 117.89,39.7433333 C114.306667,39.7433333 112.15,37.3466667 111.336667,35.3866667 L114.163333,34.21 C114.666667,35.4133333 115.9,36.8333333 117.886667,36.8333333 C120.323333,36.8333333 121.833333,35.33 121.833333,32.5 L121.833333,31.4366667 L121.72,31.4366667 C120.993333,32.3333333 119.593333,33.1166667 117.826667,33.1166667 C114.13,33.1166667 110.743333,29.8966667 110.743333,25.7533333 C110.743333,21.58 114.13,18.3333333 117.826667,18.3333333 C119.59,18.3333333 120.99,19.1166667 121.72,19.9866667 L121.833333,19.9866667 L121.833333,18.7833333 L124.916667,18.7833333 L124.916667,18.78 Z M122.063333,25.7533333 C122.063333,23.15 120.326667,21.2466667 118.116667,21.2466667 C115.876667,21.2466667 114,23.15 114,25.7533333 C114,28.33 115.876667,30.2066667 118.116667,30.2066667 C120.326667,30.2066667 122.063333,28.33 122.063333,25.7533333 Z" id="Shape"></path>
            <polygon id="Shape" points="130 11 130 32.6666667 126.833333 32.6666667 126.833333 11"></polygon>
            <path d="M142.34,28.16 L144.86,29.84 C144.046667,31.0433333 142.086667,33.1166667 138.7,33.1166667 C134.5,33.1166667 131.363333,29.87 131.363333,25.7233333 C131.363333,21.3266667 134.526667,18.33 138.336667,18.33 C142.173333,18.33 144.05,21.3833333 144.663333,23.0333333 L145,23.8733333 L135.116667,27.9666667 C135.873333,29.45 137.05,30.2066667 138.7,30.2066667 C140.353333,30.2066667 141.5,29.3933333 142.34,28.16 Z M134.583333,25.5 L141.19,22.7566667 C140.826667,21.8333333 139.733333,21.19 138.446667,21.19 C136.796667,21.19 134.5,22.6466667 134.583333,25.5 L134.583333,25.5 Z" id="Shape"></path>
            <path d="M66.7633333,23.8033333 L66.7633333,20.6666667 L77.3333333,20.6666667 C77.4366667,21.2133333 77.49,21.86 77.49,22.56 C77.49,24.9133333 76.8466667,27.8233333 74.7733333,29.8966667 C72.7566667,31.9966667 70.18,33.1166667 66.7666667,33.1166667 C60.44,33.1166667 55.12,27.9633333 55.12,21.6366667 C55.12,15.31 60.44,10.1566667 66.7666667,10.1566667 C70.2666667,10.1566667 72.76,11.53 74.6333333,13.32 L72.42,15.5333333 C71.0766667,14.2733333 69.2566667,13.2933333 66.7633333,13.2933333 C62.1433333,13.2933333 58.53,17.0166667 58.53,21.6366667 C58.53,26.2566667 62.1433333,29.98 66.7633333,29.98 C69.76,29.98 71.4666667,28.7766667 72.56,27.6833333 C73.4466667,26.7966667 74.03,25.53 74.26,23.8 L66.7633333,23.8033333 L66.7633333,23.8033333 Z" id="Shape"></path>
        </g>
    </g>
</svg>