<?xml version="1.0" encoding="UTF-8"?>
<svg width="200px" height="50px" viewBox="0 0 200 50" version="1.1" xmlns="http://www.w3.org/2000/svg" xmlns:xlink="http://www.w3.org/1999/xlink">
    <!-- Generator: Sketch 42 (36781) - http://www.bohemiancoding.com/sketch -->
    <title>linux</title>
    <desc>Created with Sketch.</desc>
    <defs></defs>
    <g id="git.com" stroke="none" stroke-width="1" fill="none" fill-rule="evenodd">
        <g id="linux" fill-rule="nonzero" fill="#171219">
            <path d="M94.0656995,11.5574301 C93.9286839,7.01197927 95.7012228,5.00553368 99.3833161,4.93964767 C103.060622,4.86851813 105.366404,6.80862176 105.838777,9.35332642 C106.305907,11.8927876 106.036891,15.2397513 106.976394,16.9769534 C107.911109,18.718943 108.510466,20.0546736 110.120456,22.0608912 C111.725202,24.0671088 112.725803,26.1088912 113.193389,28.5872539 C113.665306,31.060829 113.929762,32.2289948 112.725803,33.5036269 C111.522301,34.7732435 109.384083,36.8455751 107.778881,34.504228 C106.971606,33.3310466 106.885202,31.8733472 108.246466,31.5637513 C109.114839,31.3603938 109.739503,31.4265078 110.384684,31.7616373 C111.034881,32.0969948 111.187171,31.9392332 110.40999,31.3603938 C109.627565,30.7813264 109.470487,31.3145699 109.739503,30.3800829 C110.008974,29.4453679 110.359378,27.7642487 109.627793,25.9155648 C109.287648,25.0624663 108.134756,22.7261347 107.052767,22.1520829 C106.956104,22.096228 106.672041,21.9795026 106.864912,22.2181969 C107.154446,22.5788601 108.713596,24.8743834 109.15542,26.2406632 C109.627793,27.7086218 109.693679,29.1104663 109.450197,29.9991295 C109.206715,30.8930363 108.77971,31.248456 108.266756,31.248456 C107.753803,31.248456 107.286674,31.4921658 107.286674,30.3139689 C107.286674,29.1305285 107.408642,27.3477306 106.77372,25.8391917 C106.138798,24.3358964 105.366632,23.2997306 105.199295,22.6648083 C105.036746,22.029886 104.665824,20.3234611 103.89913,19.3534093 C103.126964,18.3833575 102.791834,17.7484352 103.19285,16.6413679 C103.594093,15.5393161 103.294301,15.2395233 102.492041,15.0058446 C101.689554,14.7723938 100.617824,14.4370363 100.353824,13.8987772 C100.08458,13.3655337 100.252373,12.2938031 100.851731,12.0298031 C101.455876,11.7605596 102.456477,12.1262383 102.492041,12.8984041 C102.527606,13.6653264 102.156684,14.0665699 102.258819,14.2341347 C102.360269,14.4016995 102.893285,14.670943 103.162756,14.3713782 C103.426756,14.0665699 103.498114,13.1318549 103.228642,12.2634819 C102.959171,11.3948808 102.827399,10.7905078 101.857119,10.5923938 C100.887295,10.3890363 100.450487,10.4551503 99.9831295,11.0595233 C99.515772,11.6588808 99.3128705,12.6289326 99.449886,13.3349845 C99.581886,14.0357927 99.3126425,13.6345492 98.845513,13.5989845 C98.3781554,13.5684352 98.5103834,13.5328705 98.0430259,13.5684352 C97.5756684,13.5989845 97.7434611,13.2991917 97.7076684,12.7964974 C97.6771192,12.2935751 97.6112332,11.2576373 96.9051813,10.8563938 C96.2041451,10.4551503 95.0006425,10.9225078 95.0309637,12.5986114 C95.0665285,14.2696995 95.6353368,15.0719585 95.9706943,14.4675855 C96.3058238,13.868228 96.1382591,14.1680207 95.8031295,13.8987772 C95.468,13.6347772 95.2343212,12.5274819 95.6,12.1973679 C95.9706943,11.8622383 96.402487,11.8622383 96.6411813,12.0603523 C96.8748601,12.2634819 97.2405389,12.9339689 97.1744249,13.3655337 C97.1083109,13.802342 97.0727461,13.8328912 96.6411813,14.1374715 C96.2043731,14.4370363 96.0368083,14.7062798 95.534114,15.0363938 C95.0311917,15.3715233 94.8333057,16.1436891 95.2345492,16.3418031 C95.6357927,16.5449326 95.6713575,16.5093679 96.0014715,17.0122902 C96.336601,17.5152124 96.9054093,17.7486632 98.3122694,17.5152124 C99.714114,17.2815337 100.292953,16.9464041 101.354653,16.5754819 C102.126819,16.3112539 101.857347,16.3418031 102.126819,16.0422383 C102.390819,15.7426736 102.827627,16.1742383 102.426383,16.4434819 C102.02514,16.7127254 101.120746,16.9767254 100.450715,17.2104041 C99.7852435,17.4490984 99.0133057,18.1145699 97.6114611,18.048456 C96.204601,17.982342 97.1746528,18.0128912 96.7378446,17.982342 C96.3060518,17.9467772 96.1029223,18.0128912 96.5702798,18.3480207 C97.0426528,18.6833782 97.0070881,18.784829 97.4083316,18.916829 C97.8095751,19.0540725 98.3428187,19.0540725 98.9827565,18.8203938 C99.6176788,18.5816995 101.222881,17.8806632 101.725575,17.5455337 C102.223482,17.2104041 102.624497,17.6472124 102.126819,17.982342 C101.624124,18.3174715 101.486881,18.2160207 101.019523,18.5155855 C100.552394,18.8203938 99.6837927,19.3180725 99.1149845,19.8563316 C98.5461762,20.3895751 98.4141762,20.4251399 97.7081244,20.4556891 C97.0073161,20.4912539 96.5705078,19.7548808 96.270715,19.4197513 C95.9711503,19.0843938 96.0014715,18.8865078 95.6357927,18.4850363 C95.270114,18.0837927 95.2345492,18.180228 95.1684352,18.6170363 C95.1023212,19.0538446 94.5996269,20.1558964 94.1628187,20.8924974 C93.7310259,21.6288705 93.6954611,22.5330363 93.7615751,23.1679585 C93.8276891,23.8028808 93.6601244,23.8687668 93.1624456,24.6051399 C92.6595233,25.341513 91.8214715,27.5152953 91.6894715,28.2163316 C91.5572435,28.9171399 91.3899067,30.3595648 91.4557927,31.192601 C91.5219067,32.0306528 91.288228,32.1982176 90.6838549,31.6294093 C90.0844974,31.060601 89.8811399,30.4256788 89.9169326,29.5876269 C89.9474819,28.871544 90.0439171,28.3686218 90.1353368,28.1046218 C90.2267565,27.8406218 90.1403523,27.6577824 89.9474819,27.9828808 C89.5359793,28.6937202 89.5156891,29.9229845 89.6173679,30.3597927 C89.7138031,30.7915855 89.7493679,31.5635233 90.8516477,32.5994611 C91.958715,33.6356269 93.5636891,35.0730363 94.8996477,36.0430881 C96.2403938,37.0131399 96.7077513,38.2168705 94.7320829,39.0854715 C95.9713782,40.7615751 96.6416373,41.6299482 96.1033782,42.732 C97.2104456,42.0970777 96.7838964,40.5990259 96.2506528,40.1975544 C95.7121658,39.7963109 96.0372642,39.486715 96.5046218,39.7915233 C96.9719793,40.0910881 97.139544,40.6904456 98.9832124,40.6598964 C100.821637,40.6245596 102.802549,40.4417202 103.910073,38.8315026 C105.012124,37.2265285 105.225513,38.5775337 104.956041,39.5172642 C104.692041,40.4517513 104.031585,42.5646632 105.067751,42.3665492 C105.199979,41.1270259 105.50456,40.0555233 105.50456,38.7197927 C105.50456,37.3788187 105.636788,36.7338653 105.535337,34.7937617 C105.43343,32.9245596 106.241161,32.7975751 107.074197,32.7975751 C107.912249,32.7975751 107.642777,33.3358342 107.109762,33.3002694 C106.571503,33.2649326 106.007254,33.4680622 105.972145,34.8393575 C105.93658,36.2106528 105.972145,36.0786528 106.205368,37.3129326 C106.439047,38.552228 106.474839,38.9179067 106.27171,40.2892021 C106.073596,41.6607254 105.905803,42.3968705 106.809969,43.2351503 C107.708891,44.0732021 109.079959,43.8345078 109.786238,43.3010363 C110.487047,42.7677927 111.823005,41.5287254 113.026508,41.1272539 C114.235482,40.7260104 115.505326,40.4264456 116.175358,39.7559585 C116.841057,39.0856995 116.673264,38.618342 115.972228,38.2524352 C115.27142,37.8817409 114.600705,38.0493057 114.067689,37.4499482 C113.528974,36.8455751 113.264974,35.5096166 113.463088,34.8037927 C113.666218,34.1029845 113.899896,34.4025492 113.899896,34.9054715 C113.899896,35.4081658 113.930674,35.8755233 114.433368,36.5102176 C114.936062,37.1451399 115.403192,37.4499482 116.205907,37.9476269 C117.008394,38.4505492 117.511088,39.2530363 116.505472,39.9588601 C115.50487,40.6596684 114.935834,41.0611399 114.097782,41.3962694 C113.264746,41.7316269 111.893679,42.533886 111.055171,43.3671503 C110.217119,44.2052021 109.74999,44.9415751 108.109679,44.9415751 C106.474155,44.9415751 105.722508,44.5453472 105.235088,43.5700518 C104.899731,42.8997927 104.731938,43.0014715 103.965244,42.9659067 C103.193078,42.9353575 100.618052,42.8997927 98.6120622,42.9353575 C96.6058446,42.9659067 95.9355855,43.3010363 95.0314197,44.0374093 C94.1324974,44.7737824 93.7971399,45.3428187 92.090715,44.7737824 C90.3842902,44.2047461 89.4801244,43.5700518 86.9406632,43.0673575 C84.3959585,42.5646632 85.7674819,42.798114 84.2283938,42.4629845 C82.6895337,42.1328705 82.7909845,41.3962694 82.994342,40.7921244 C83.192456,40.1927668 83.6951503,39.2530363 83.258342,38.0189845 C82.8265492,36.7794611 82.994342,35.5098446 84.1622798,35.5098446 C85.3354611,35.5098446 86.4377409,35.7435233 86.9048705,34.2044352 C87.372228,32.6655751 87.5092435,33.8693057 87.372228,34.2705492 C87.240228,34.6717927 87.174114,35.7738446 86.1379482,35.9416373 C85.1017824,36.1089741 84.8683316,35.8755233 84.2281658,35.8755233 C83.5934715,35.8755233 83.3292435,36.3123316 83.6593575,37.0487047 C83.994487,37.7848497 84.3651813,38.552 84.2992953,39.1869223 C84.2281658,39.8216166 84.1620518,40.0555233 83.6949223,40.6596684 C83.2275648,41.2590259 83.2936788,41.5638342 84.1317306,41.7619482 C84.9645389,41.9653057 86.4730777,42.3663212 87.8749223,42.7016788 C89.2817824,43.0315648 89.3834611,43.0315648 91.8212435,43.6717306 C94.2642694,44.3064249 94.9347565,43.1688083 95.1328705,41.797513 C95.336,40.4259896 94.3964974,39.1208083 93.5278964,37.815399 C92.6592953,36.5099896 91.7243523,35.0073782 90.5865078,33.6358549 C89.4488912,32.2645596 88.7784041,32.1628808 88.2095959,32.4626736 C87.6405596,32.7674819 87.5391088,32.7013679 87.5085596,31.9294301 C87.4729948,31.1625078 87.4068808,30.6598135 88.0418031,29.5219689 C88.6767254,28.3843523 89.2455337,27.144829 89.9160207,25.2402902 C90.5862798,23.3357513 91.1856373,22.965057 92.3234819,21.3245181 C93.4613264,19.6892228 92.9584041,20.3239171 93.7608912,19.2218653 C94.5633782,18.1147979 94.3296995,18.3176995 94.2638135,16.5757098 C94.1976995,14.8385078 94.1318135,13.8328912 94.0656995,11.5574301 L94.0656995,11.5574301 Z M90.8710259,25.1589016 C91.0438342,25.3672746 91.287544,24.8746114 91.541513,24.6867565 C91.7641611,24.4858977 91.8677803,24.1846011 91.815772,23.889285 C91.7904663,23.7319793 91.5362694,23.7825907 91.485658,23.8384456 C91.3283523,23.9957513 91.3636891,24.2499482 91.2519793,24.4683523 C91.1249948,24.7323523 90.6984456,24.9457409 90.8710259,25.1589016 L90.8710259,25.1589016 Z M105.249679,18.1701969 C105.610342,18.4750052 105.833762,18.7392332 106.031648,18.2871503 C106.235233,17.8350674 106.235233,17.652228 105.747585,17.4693886 C105.264953,17.2813057 105.046777,17.0834197 104.828145,16.8344663 C104.609969,16.5804974 104.533824,17.0122902 104.71142,17.4338238 C104.929596,17.9520207 105.05658,18.0128912 105.249679,18.1701969 L105.249679,18.1701969 Z M97.712456,14.0207461 C97.4635026,13.9699067 97.1639378,13.9901969 96.9961451,14.1883109 C96.9300311,14.2544249 96.9605803,14.4422798 97.0773057,14.4931192 C97.2295959,14.5592332 97.3312746,14.406943 97.3618238,14.2899896 C97.3770984,14.2391503 97.3973886,14.1732642 97.448228,14.1579896 C97.514342,14.1224249 97.6107772,14.1529741 97.6819067,14.1224249 C97.7632953,14.0918756 97.7327461,14.0207461 97.712456,14.0207461 L97.712456,14.0207461 Z M98.8958964,14.0665699 C98.9975751,14.2188601 99.1804145,14.2188601 99.3327047,14.2849741 C99.4138653,14.3205389 99.581658,14.3713782 99.6322694,14.2544249 C99.7492228,13.8837306 99.2463005,14.000456 99.0126218,14.000456 C98.9620104,14.000456 98.845057,13.9854093 98.8958964,14.0665699 Z M101.334135,12.4463212 C101.56257,12.4563523 101.872394,12.8628394 101.902715,13.3352124 C101.907503,13.406342 102.100829,13.4010984 102.141409,13.3301969 C102.248332,13.142342 102.172187,12.9339689 102.121347,12.7105492 C102.080311,12.5277098 101.862135,12.3398549 101.679295,12.2584663 C101.557326,12.1973679 101.430342,12.1773057 101.267793,12.1973679 C101.227212,12.217886 101.085181,12.4310466 101.334135,12.4463212 L101.334135,12.4463212 Z M96.3514197,12.3295959 C96.1430466,12.3446425 96.2194197,12.5071917 96.2294508,12.6391917 C96.5189845,12.8017409 96.5442902,13.1674197 96.6051606,13.4569534 C96.6101762,13.5686632 96.7777409,13.5180518 96.7930155,13.482487 C96.92,13.2488083 96.7624663,12.9848083 96.7068394,12.7105492 C96.656,12.5682902 96.5595648,12.4057409 96.4273368,12.3093057 C96.4072746,12.2890155 96.3714819,12.3295959 96.3514197,12.3295959 Z M102.740539,7.20484974 C102.532166,7.03728497 102.207067,6.97117098 102.11086,7.24543005 C102.009409,7.47910881 102.049762,7.71780311 101.993679,7.97177202 C101.993679,8.05293264 101.892228,8.0732228 101.836601,8.14936788 C101.755212,8.24580311 101.775503,8.36777202 101.816083,8.40333679 C102.009409,8.60145078 102.364601,8.21023834 102.623813,8.0732228 C102.816684,7.95125389 103.095731,8.10878756 103.309575,7.97177202 C103.370218,7.93119171 103.390508,7.8345285 103.329637,7.75838342 C103.192622,7.51968912 102.953927,7.38267358 102.740539,7.20484974 Z" id="Shape"></path>
        </g>
    </g>
</svg>