<?xml version="1.0" encoding="UTF-8"?>
<svg width="200px" height="50px" viewBox="0 0 200 50" version="1.1" xmlns="http://www.w3.org/2000/svg" xmlns:xlink="http://www.w3.org/1999/xlink">
    <!-- Generator: Sketch 42 (36781) - http://www.bohemiancoding.com/sketch -->
    <title>microsoft</title>
    <desc>Created with Sketch.</desc>
    <defs></defs>
    <g id="git.com" stroke="none" stroke-width="1" fill="none" fill-rule="evenodd">
        <g id="microsoft" fill-rule="nonzero" fill="#42A5E8">
            <path d="M170.327443,23.5527376 L170.327443,21.0848643 L167.262787,21.0848643 L167.262787,17.2481561 L167.159633,17.2798869 L164.28112,18.160543 L164.224446,18.1778507 L164.224446,21.0848643 L159.681176,21.0848643 L159.681176,19.4655769 C159.681176,18.7115045 159.849842,18.1344118 160.182081,17.7495701 C160.512115,17.36931 160.984174,17.1760407 161.586041,17.1760407 C162.018903,17.1760407 162.467036,17.2780204 162.917885,17.479095 L163.030894,17.529491 L163.030894,14.9304525 L162.977783,14.9109389 C162.557138,14.7597511 161.984796,14.6835633 161.27569,14.6835633 C160.381799,14.6835633 159.569525,14.8780204 158.861267,15.2635407 C158.1525,15.6495701 157.594921,16.2007014 157.20448,16.9014932 C156.815226,17.6014367 156.617715,18.4098077 156.617715,19.3043778 L156.617715,21.0848643 L154.483778,21.0848643 L154.483778,23.5527376 L156.617715,23.5527376 L156.617715,33.9494005 L159.681176,33.9494005 L159.681176,23.5527376 L164.224446,23.5527376 L164.224446,30.1596946 C164.224446,32.8807353 165.50793,34.2597511 168.039095,34.2597511 C168.455158,34.2597511 168.892778,34.2108824 169.339887,34.1153507 C169.794814,34.0174434 170.104656,33.9195362 170.287059,33.8150113 L170.327443,33.7912557 L170.327443,31.3004751 L170.202896,31.3829412 C170.036606,31.493914 169.829593,31.5843552 169.586783,31.6515498 C169.342941,31.7201018 169.139321,31.7545475 168.981692,31.7545475 C168.388643,31.7545475 167.950018,31.5947059 167.67767,31.2794344 C167.402443,30.9612783 167.262801,30.4047172 167.262801,29.6263801 L167.262801,23.5527376 L170.327443,23.5527376 L170.327443,23.5527376 Z M147.64259,31.7547851 C146.530656,31.7547851 145.654072,31.3860633 145.036256,30.659819 C144.414706,29.9298416 144.099774,28.8891742 144.099774,27.5670023 C144.099774,26.2029186 144.414706,25.1352715 145.036595,24.3923982 C145.654751,23.6544457 146.52302,23.2799548 147.617647,23.2799548 C148.679864,23.2799548 149.525396,23.6376471 150.130995,24.3436991 C150.739819,25.0533145 151.048643,26.1124774 151.048643,27.4925113 C151.048643,28.8895136 150.758145,29.9625905 150.185294,30.6803507 C149.616516,31.3928507 148.761143,31.7547851 147.64259,31.7547851 L147.64259,31.7547851 Z M147.779016,20.7749208 C145.657636,20.7749208 143.972681,21.3964706 142.771493,22.6224321 C141.570984,23.8485633 140.962161,25.5452262 140.962161,27.6659276 C140.962161,29.6800679 141.556391,31.3002036 142.728394,32.4805204 C143.900396,33.6613462 145.495419,34.2594796 147.468665,34.2594796 C149.525057,34.2594796 151.176414,33.629276 152.377262,32.3863462 C153.577941,31.1446041 154.186256,29.4640611 154.186256,27.3929072 C154.186256,25.3472059 153.615441,23.7150226 152.489084,22.5425113 C151.362217,21.369491 149.777206,20.7749208 147.779016,20.7749208 L147.779016,20.7749208 Z M136.022935,20.7748529 C134.579948,20.7748529 133.386396,21.143914 132.474519,21.8716855 C131.557211,22.6036991 131.091939,23.5639367 131.091939,24.7257579 C131.091939,25.3296606 131.192392,25.8661991 131.390073,26.3211199 C131.588942,26.7777376 131.896747,27.1795475 132.305514,27.5168778 C132.711396,27.8514932 133.337528,28.2020588 134.167618,28.5585633 C134.865186,28.8456674 135.385605,29.0886538 135.716148,29.2800566 C136.039224,29.4675566 136.268636,29.6562443 136.398105,29.8398416 C136.52384,30.0195362 136.58781,30.2654072 136.58781,30.5691403 C136.58781,31.4333371 135.940638,31.8538122 134.608795,31.8538122 C134.114847,31.8538122 133.551329,31.7508145 132.934021,31.5473643 C132.316374,31.3442534 131.739281,31.0522285 131.219032,30.6777376 L131.091939,30.5866176 L131.091939,33.5358824 L131.138602,33.5576018 C131.572143,33.7576584 132.118523,33.9263235 132.762641,34.0591855 C133.405571,34.1920475 133.98962,34.2597511 134.497143,34.2597511 C136.06298,34.2597511 137.323896,33.8888235 138.243919,33.15681 C139.169881,32.4197059 139.639224,31.4369005 139.639224,30.2346946 C139.639224,29.3676131 139.386566,28.6238914 138.888546,28.0242308 C138.394089,27.4293213 137.535831,26.8832805 136.338546,26.4005317 C135.384756,26.0177262 134.773727,25.6999095 134.521747,25.4560747 C134.278761,25.2203846 134.155401,24.8871267 134.155401,24.4651244 C134.155401,24.0909729 134.307607,23.7913122 134.620333,23.5484955 C134.935435,23.304491 135.373896,23.1804525 135.92401,23.1804525 C136.434417,23.1804525 136.956702,23.261052 137.475933,23.4190271 C137.994994,23.5770023 138.450763,23.7885973 138.831362,24.0475339 L138.956419,24.1330543 L138.956419,21.3353167 L138.908399,21.3146154 C138.557324,21.1641063 138.094428,21.0353167 137.532267,20.9307919 C136.972313,20.8272851 136.464451,20.7748529 136.022935,20.7748529 L136.022935,20.7748529 Z M123.105627,31.7547851 C121.994032,31.7547851 121.117109,31.3860633 120.499462,30.659819 C119.877743,29.9298416 119.563319,28.8895136 119.563319,27.5670023 C119.563319,26.2029186 119.878082,25.1352715 120.500141,24.3923982 C121.117788,23.6544457 121.985887,23.2799548 123.081023,23.2799548 C124.142901,23.2799548 124.988433,23.6376471 125.594202,24.3436991 C126.203025,25.0533145 126.511849,26.1124774 126.511849,27.4925113 C126.511849,28.8895136 126.221181,29.9625905 125.648331,30.6803507 C125.079552,31.3928507 124.224519,31.7547851 123.105627,31.7547851 L123.105627,31.7547851 Z M123.242392,20.7749208 C121.120503,20.7749208 119.435548,21.3964706 118.234869,22.6224321 C117.03436,23.8485633 116.425197,25.5452262 116.425197,27.6659276 C116.425197,29.6809163 117.019767,31.3002036 118.19177,32.4805204 C119.363772,33.6613462 120.958625,34.2594796 122.932041,34.2594796 C124.987924,34.2594796 126.63979,33.629276 127.840638,32.3863462 C129.040978,31.1446041 129.649632,29.4640611 129.649632,27.3929072 C129.649632,25.3472059 129.078648,23.7150226 127.95212,22.5425113 C126.824914,21.369491 125.240243,20.7749208 123.242392,20.7749208 L123.242392,20.7749208 Z M111.77496,23.3126357 L111.77496,21.0848643 L108.748829,21.0848643 L108.748829,33.9490611 L111.77496,33.9490611 L111.77496,27.3685747 C111.77496,26.2495136 112.028636,25.3303394 112.529202,24.6359955 C113.023489,23.9499661 113.6822,23.6022851 114.486329,23.6022851 C114.75884,23.6022851 115.064779,23.6472511 115.39617,23.7361652 C115.724168,23.8245701 115.961724,23.9204412 116.101883,24.0214027 L116.228976,24.1135407 L116.228976,21.0628054 L116.179937,21.0417647 C115.898093,20.9219683 115.499507,20.8615611 114.995039,20.8615611 C114.234688,20.8615611 113.554089,21.105905 112.971227,21.586957 C112.459632,22.0098077 112.089722,22.5896154 111.80703,23.3126357 L111.77496,23.3126357 L111.77496,23.3126357 Z M103.32974,20.7748529 C101.941561,20.7748529 100.703213,21.0726471 99.649819,21.6594118 C98.5943891,22.2475339 97.7782127,23.0872964 97.2228394,24.1551131 C96.6700113,25.2203846 96.3893552,26.4646719 96.3893552,27.8521719 C96.3893552,29.0676131 96.6615271,30.1831109 97.1994231,31.166086 C97.7376584,32.1507579 98.4995362,32.9211199 99.4638462,33.4554525 C100.426799,33.9891063 101.539751,34.2597511 102.771991,34.2597511 C104.210057,34.2597511 105.437885,33.972138 106.422387,33.4052262 L106.462093,33.382319 L106.462093,30.6100339 L106.335,30.7028507 C105.889072,31.0276244 105.390713,31.2869005 104.854514,31.4737217 C104.319672,31.6603733 103.832002,31.7547172 103.40457,31.7547172 C102.217127,31.7547172 101.264016,31.3831109 100.572048,30.6507579 C99.878552,29.9172172 99.5269683,28.8874095 99.5269683,27.5913688 C99.5269683,26.2871833 99.8936538,25.230905 100.616335,24.4513801 C101.33664,23.6742308 102.291618,23.2800566 103.454457,23.2800566 C104.44914,23.2800566 105.418371,23.6168778 106.335339,24.2820362 L106.462093,24.3741742 L106.462093,21.4530769 L106.421199,21.43 C106.076063,21.2369005 105.605532,21.0773982 105.021143,20.956414 C104.439468,20.8357692 103.87052,20.7748529 103.32974,20.7748529 L103.32974,20.7748529 Z M94.3052036,21.0848982 L91.2790724,21.0848982 L91.2790724,33.949095 L94.3052036,33.949095 L94.3052036,21.0848982 Z M92.8230204,15.604638 C92.325,15.604638 91.8906109,15.7741516 91.533767,16.1101244 C91.1753959,16.4471154 90.9934955,16.8713235 90.9934955,17.3718891 C90.9934955,17.8646493 91.17319,18.281052 91.5279977,18.6090498 C91.8805995,18.9360294 92.3163462,19.10181 92.8230204,19.10181 C93.3295249,19.10181 93.7669683,18.9360294 94.1238122,18.6095588 C94.4830317,18.281052 94.6651018,17.8646493 94.6651018,17.3718891 C94.6651018,16.8888009 94.4879525,16.4688348 94.1385747,16.1236991 C93.7897059,15.7792421 93.3470023,15.604638 92.8230204,15.604638 L92.8230204,15.604638 Z M85.2728104,20.1357919 L85.2728104,33.9490271 L88.3610457,33.9490271 L88.3610457,15.9985747 L84.0868941,15.9985747 L78.6539756,29.3316063 L73.3817471,15.9985747 L68.9335005,15.9985747 L68.9335005,33.9490271 L71.8355932,33.9490271 L71.8355932,20.1344344 L71.935367,20.1344344 L77.5026747,33.9490271 L79.6927765,33.9490271 L85.1732063,20.1357919 L85.2728104,20.1357919 L85.2728104,20.1357919 Z" id="path5056"></path>
            <polygon id="path5058" points="44.2354072 24.2354072 30 24.2354072 30 10 44.2354072 10"></polygon>
            <polygon id="path5060" points="59.9529977 24.2354072 45.7177602 24.2354072 45.7177602 10 59.9529977 10"></polygon>
            <polygon id="path5062" points="44.2350679 39.9585973 30 39.9585973 30 25.72319 44.2350679 25.72319"></polygon>
            <polygon id="path5064" points="59.9529977 39.9585973 45.7177602 39.9585973 45.7177602 25.72319 59.9529977 25.72319"></polygon>
        </g>
    </g>
</svg>