<?xml version="1.0" encoding="UTF-8"?>
<svg width="200px" height="50px" viewBox="0 0 200 50" version="1.1" xmlns="http://www.w3.org/2000/svg" xmlns:xlink="http://www.w3.org/1999/xlink">
    <!-- Generator: Sketch 42 (36781) - http://www.bohemiancoding.com/sketch -->
    <title>netflix</title>
    <desc>Created with Sketch.</desc>
    <defs></defs>
    <g id="git.com" stroke="none" stroke-width="1" fill="none" fill-rule="evenodd">
        <g id="netflix" fill-rule="nonzero" fill="#2C3041">
            <path d="M60.2494224,38.0401444 C58.5811191,38.3331047 56.8834657,38.4209386 55.1273285,38.6548736 L49.7708664,22.9664982 L49.7708664,39.3281949 C48.1025632,39.5037545 46.5805776,39.7379061 45,39.9720578 L45,10 L49.4490975,10 L55.5370397,27.0058845 L55.5370397,10 L60.2494224,10 L60.2494224,38.0401444 Z M69.4693863,20.9761011 C71.2842238,20.9761011 74.0648014,20.8882671 75.7331047,20.8882671 L75.7331047,25.5712996 C73.6548736,25.5712996 71.2256318,25.5712996 69.4693863,25.6591336 L69.4693863,32.6254152 C72.2208303,32.4498556 74.9721661,32.2154874 77.7526354,32.1276534 L77.7526354,36.6349097 L64.7861372,37.6595668 L64.7861372,10 L77.7526354,10 L77.7526354,14.6831408 L69.4693863,14.6831408 L69.4693863,20.9761011 L69.4693863,20.9761011 Z M95.1680144,14.6832491 L90.3093141,14.6832491 L90.3093141,36.2256318 C88.7287365,36.2256318 87.1481588,36.2256318 85.6263899,36.2840072 L85.6263899,14.6832491 L80.7676895,14.6832491 L80.7676895,10 L95.168231,10 L95.1680144,14.6832491 L95.1680144,14.6832491 Z M102.778051,20.6542238 L109.188195,20.6542238 L109.188195,25.3372563 L102.778051,25.3372563 L102.778051,35.9622383 L98.1824188,35.9622383 L98.1824188,10 L111.266318,10 L111.266318,14.6831408 L102.778051,14.6831408 L102.778051,20.6542238 L102.778051,20.6542238 Z M118.876354,31.8643682 C121.539964,31.9227437 124.232599,32.1279783 126.837726,32.2740794 L126.837726,36.8987365 C122.652238,36.6351264 118.466643,36.3720578 114.193321,36.2840072 L114.193321,10 L118.876354,10 L118.876354,31.8643682 Z M130.789061,37.220722 C132.281805,37.3086643 133.862383,37.3964982 135.384368,37.5718412 L135.384368,10 L130.789061,10 L130.789061,37.220722 L130.789061,37.220722 Z M155.902527,10 L149.960686,24.2543321 L155.902527,39.9720578 C154.146173,39.7379061 152.390036,39.4159206 150.633791,39.1231769 L147.267942,30.4595668 L143.843718,38.4209386 C142.14574,38.1279783 140.506679,38.0401444 138.80935,37.8059928 L144.838809,24.078556 L139.394513,10 L144.428664,10 L147.501986,17.8735379 L150.780325,10 L155.902527,10 L155.902527,10 Z" id="Shape"></path>
        </g>
    </g>
</svg>