<?xml version="1.0" encoding="UTF-8"?>
<svg width="200px" height="50px" viewBox="0 0 200 50" version="1.1" xmlns="http://www.w3.org/2000/svg" xmlns:xlink="http://www.w3.org/1999/xlink">
    <!-- Generator: Sketch 42 (36781) - http://www.bohemiancoding.com/sketch -->
    <title>qt</title>
    <desc>Created with Sketch.</desc>
    <defs></defs>
    <g id="git.com" stroke="none" stroke-width="1" fill="none" fill-rule="evenodd">
        <g id="qt" fill-rule="nonzero" fill="#2C3041">
            <path d="M75.9911504,2 L132.415929,2 L132.415929,39.2871386 C129.385841,42.200472 126.345841,45.1043068 123.298761,48 L67,48 L67,10.6015929 C69.9847788,7.72353982 72.9950442,4.86719764 75.9911504,2 Z M108.646726,11.5921534 C108.642478,13.4945723 108.648142,15.3956342 108.643894,17.2980531 C107.597522,17.3021239 106.552566,17.2966962 105.506195,17.300767 C105.503363,18.5355752 105.503363,19.7703835 105.506195,21.0038348 C106.552566,21.0079056 107.598938,21.0038348 108.64531,21.0065487 C108.646726,24.0827139 108.643894,27.1575221 108.646726,30.2336873 C108.677876,31.9366372 108.735929,33.7020059 109.450973,35.2882596 C109.850265,36.220472 110.767788,36.8460177 111.751858,37.1255457 C114.088142,37.8338643 116.556106,37.380649 118.907965,37.0020649 C118.84,35.8676696 118.770619,34.7319174 118.698407,33.5975221 C117.516106,33.6178761 116.335221,33.6843658 115.15292,33.6884366 C114.525664,33.6680826 113.755398,33.5120354 113.469381,32.9041298 C113.077168,32.1157522 113.096991,31.2147493 113.060177,30.3612389 C113.043186,27.2430088 113.057345,24.1247788 113.053097,21.0065487 C114.970265,21.0024779 116.886018,21.0079056 118.803186,21.0038348 C118.84,19.7690265 118.875398,18.5342183 118.907965,17.29941 C116.989381,17.2980531 115.070796,17.300767 113.152212,17.2980531 C113.147965,15.3956342 113.153628,13.4945723 113.149381,11.5921534 C111.648496,11.5907965 110.147611,11.5907965 108.646726,11.5921534 Z M84.3267257,11.6789971 C82.5015929,12.8133923 81.4212389,14.7443068 80.7684956,16.679292 C79.9246018,19.2520354 79.7461947,21.9753982 79.7660177,24.6566962 C79.8042478,27.1371681 80.0279646,29.6529204 80.860531,32.0166962 C81.3688496,33.4143363 82.1122124,34.7889086 83.2959292,35.7713274 C84.8364602,37.059056 86.8711504,37.6425369 88.8676106,37.8718584 C90.5341593,38.0482596 92.2304425,38.0686136 93.8884956,37.8080826 C95.1146903,39.7376401 96.3309735,41.6739823 97.5529204,43.6062537 C98.9886726,42.9752802 100.418761,42.3375221 101.853097,41.7038348 C100.711858,39.9316814 99.5479646,38.1730973 98.4067257,36.400944 C99.9925664,35.3099705 101.19469,33.7386431 101.826195,31.9692035 C102.769204,29.3679646 102.898053,26.5781121 102.893805,23.8479646 C102.859823,21.1368142 102.562478,18.3822419 101.550088,15.8312094 C100.924248,14.2775221 99.9854867,12.7753982 98.5412389,11.8024779 C96.5532743,10.4306195 94.0357522,10.0276106 91.6371681,9.99911504 C89.1182301,9.97740413 86.4690265,10.320708 84.3267257,11.6789971 Z M89.7270796,13.900295 C91.1840708,13.7184661 92.7132743,13.7673156 94.0923894,14.2951622 C95.2095575,14.7185251 96.1582301,15.5476106 96.659469,16.5978761 C97.4283186,18.1895575 97.7228319,19.9467847 97.8715044,21.6823009 C98.0329204,23.9917994 98.0102655,26.3230088 97.6775221,28.6189381 C97.4438938,29.9853687 97.1111504,31.4250737 96.1454867,32.5024779 C95.1656637,33.5839528 93.6548673,34.0480236 92.2049558,34.1565782 C90.6757522,34.2637758 89.0630088,34.1565782 87.6824779,33.4631858 C86.8768142,33.0520354 86.1929204,32.4074926 85.7936283,31.6177581 C85.3093805,30.6719764 85.0431858,29.639351 84.8562832,28.6053687 C84.2927434,25.3270206 84.1568142,21.9346903 84.9270796,18.6753392 C85.2442478,17.4459587 85.7058407,16.1840118 86.6431858,15.2572271 C87.4587611,14.4634218 88.5943363,14.0536283 89.7270796,13.900295 Z" id="Combined-Shape"></path>
        </g>
    </g>
</svg>