<?xml version="1.0" encoding="UTF-8"?>
<svg width="200px" height="50px" viewBox="0 0 200 50" version="1.1" xmlns="http://www.w3.org/2000/svg" xmlns:xlink="http://www.w3.org/1999/xlink">
    <!-- Generator: Sketch 42 (36781) - http://www.bohemiancoding.com/sketch -->
    <title>twitter</title>
    <desc>Created with Sketch.</desc>
    <defs></defs>
    <g id="git.com" stroke="none" stroke-width="1" fill="none" fill-rule="evenodd">
        <g id="twitter" fill-rule="nonzero" fill="#2C3041">
            <path d="M91.6417428,43.5531663 C108.997597,43.5531663 118.488838,29.1746299 118.488838,16.7060708 C118.488838,16.2976696 118.48052,15.8911204 118.462201,15.4864077 C120.304582,14.1545164 121.905901,12.4924226 123.168931,10.6003474 C121.478255,11.3518377 119.658869,11.8577286 117.750281,12.0858425 C119.698377,10.917679 121.193981,9.06978829 121.899574,6.86689428 C120.076484,7.94767661 118.05755,8.73319645 115.9079,9.1572929 C114.186049,7.32324552 111.734686,6.1761171 109.020345,6.1761171 C103.809576,6.1761171 99.5840445,10.401803 99.5840445,15.6105655 C99.5840445,16.3510058 99.6668267,17.071229 99.8287179,17.7620679 C91.9864832,17.3674637 85.0325669,13.6127749 80.3786177,7.90352305 C79.5682663,9.29794847 79.101004,10.9177253 79.101004,12.6460572 C79.101004,15.9196867 80.7668326,18.809654 83.2999909,20.5003296 C81.7519154,20.4525 80.297672,20.0275423 79.0266173,19.3202056 C79.0252284,19.3597942 79.0252284,19.3983903 79.0252284,19.4407012 C79.0252284,24.0103867 82.2777148,27.8257115 86.5952265,28.6902633 C85.8023452,28.9064167 84.9681345,29.0223178 84.1071323,29.0223178 C83.5000632,29.0223178 82.9086123,28.9625678 82.3337362,28.8521545 C83.5350033,32.6012721 87.018397,35.3295025 91.1482445,35.405741 C87.9187531,37.9370474 83.8504829,39.4446887 79.4289534,39.4446887 C78.6682651,39.4446887 77.9167902,39.401421 77.1782173,39.3140738 C81.3542093,41.9907582 86.3128042,43.552569 91.6422521,43.552569" id="Shape"></path>
        </g>
    </g>
</svg>