<?xml version="1.0" encoding="UTF-8"?>
<svg width="200px" height="50px" viewBox="0 0 200 50" version="1.1" xmlns="http://www.w3.org/2000/svg" xmlns:xlink="http://www.w3.org/1999/xlink">
    <!-- Generator: Sketch 42 (36781) - http://www.bohemiancoding.com/sketch -->
    <title>xserver</title>
    <desc>Created with Sketch.</desc>
    <defs></defs>
    <g id="git.com" stroke="none" stroke-width="1" fill="none" fill-rule="evenodd">
        <g id="xserver" fill-rule="nonzero" fill="#171219">
            <path d="M79.324086,46.8568595 L95.2468232,26.0383814 L78.8540671,3.14792212 L89.3903272,3.15667626 L102.452452,21.1555236 L82.92188,46.8568595 L79.324086,46.8568595 Z M109.082593,44.9164755 C106.257779,45.617416 103.201047,46.0005765 100.010795,46.0005765 C85.6656483,46.0005765 74.0246386,38.2534493 74.0246386,28.7033453 C74.02464,22.5655072 78.8327651,17.1740324 86.077163,14.1023695 L87.4969513,16.2656431 C82.8787901,19.0803131 79.9590863,23.2212233 79.9590848,27.8344528 C79.9590848,36.3056739 89.8047799,43.1789139 101.932212,43.1789153 C103.847545,43.1789153 105.705853,43.0074751 107.477374,42.685376 L97.5172963,28.8418335 L117.210498,3.1284188 L120.71928,3.1284188 L104.731562,24.0451226 L115.892526,39.6805456 C120.78215,36.8656492 123.90086,32.6032536 123.90086,27.8344528 C123.90086,22.0815316 119.361235,17.0618554 112.650046,14.4338027 L113.120323,13.7619786 C120.824257,16.7656651 126.00143,22.3351092 126.00143,28.7033453 C126.001429,33.841547 122.630391,38.4578373 117.281566,41.6264562 L121.025669,46.8715802 L110.489242,46.8715802 L109.082593,44.9164755 Z M100.010795,11.4740259 C103.310653,11.4740259 106.466281,11.813759 109.371544,12.5616529 L108.860958,13.2648288 C106.682671,12.7588847 104.352712,12.4855128 101.932212,12.4855128 C101.817211,12.4855128 100.307467,12.2795054 99.4880678,13.5034349 C98.6602844,14.7398894 101.054756,17.1440752 102.21979,19.6512052 C100.144079,16.9248721 98.340489,14.5242894 96.1668704,11.6893722 C97.3869488,11.5722534 98.7422434,11.4740259 100.010795,11.4740259 Z" id="Combined-Shape"></path>
        </g>
    </g>
</svg>