<?xml version="1.0" encoding="UTF-8"?>
<svg width="1200px" height="300px" viewBox="0 0 1200 300" version="1.1" xmlns="http://www.w3.org/2000/svg" xmlns:xlink="http://www.w3.org/1999/xlink">
    <!-- Generator: Sketch 42 (36781) - http://www.bohemiancoding.com/sketch -->
    <title>design-logo</title>
    <desc>Created with Sketch.</desc>
    <defs></defs>
    <g id="git.com" stroke="none" stroke-width="1" fill="none" fill-rule="evenodd">
        <g id="design-logo">
            <path d="M531.657435,123.656235 L558,149.9988 L494.0012,214 L478.0003,197.9991 L478.0003,177.313371 L531.657435,123.656235 Z M461.9994,117.9994 L461.9994,182.0006 L430,149.9988 L461.9994,117.9994 Z M520.343765,112.342565 L478.0003,154.686029 L478.0003,101.9985 L494.0012,86 L520.343765,112.342565 Z" id="Page-1" fill="#E15B39"></path>
            <path d="M583.632,206.784 L581.968,190.528 C608.72,188.224 611.792,187.328 612.176,172.864 C608.336,175.552 603.472,177.472 597.328,177.472 C584.144,177.472 574.032,167.232 574.032,151.104 C574.032,130.88 589.904,117.568 609.744,117.568 C616.4,117.568 623.312,118.72 629.968,120.768 C630.224,129.984 630.352,150.336 630.352,164.032 C630.352,188.864 621.648,204.864 583.632,206.784 Z M604.496,163.52 C607.056,163.52 609.616,163.136 612.176,162.24 L612.176,134.208 C608.976,133.312 606.032,132.8 603.088,132.8 C596.048,132.8 591.952,137.408 591.952,146.88 C591.952,158.4 597.584,163.52 604.496,163.52 Z M686.032,110.272 L687.184,91.712 L668.112,91.712 L666.96,110.272 L686.032,110.272 Z M705.488,184 L707.024,170.432 L686.16,170.432 L686.16,119.232 L647.888,119.232 L646.48,132.16 L667.856,133.184 L667.856,170.432 L646.992,170.432 L646.992,184 L705.488,184 Z M768.848,184.896 L770.768,170.048 C752.976,169.664 746.96,167.872 746.96,158.784 L746.96,132.928 L769.488,132.928 L769.488,119.232 L746.96,119.232 L746.96,100.672 L728.912,102.336 L728.912,119.232 L717.392,119.232 L715.856,132.928 L728.912,132.928 L728.912,161.6 C728.912,178.88 738.512,185.664 768.848,184.896 Z" id="git" fill="#171219"></path>
        </g>
    </g>
</svg>