<?xml version="1.0" encoding="UTF-8"?>
<svg width="400px" height="160px" viewBox="0 0 400 160" version="1.1" xmlns="http://www.w3.org/2000/svg" xmlns:xlink="http://www.w3.org/1999/xlink">
    <!-- Generator: Sketch 42 (36781) - http://www.bohemiancoding.com/sketch -->
    <title>git-white-dark-background</title>
    <desc>Created with Sketch.</desc>
    <defs></defs>
    <g id="git.com" stroke="none" stroke-width="1" fill="none" fill-rule="evenodd">
        <g id="git-white-dark-background">
            <g id="bakground">
                <rect id="Rectangle-path" fill="#222222" fill-rule="nonzero" x="0" y="0" width="400" height="160"></rect>
                <path d="M0,0 L0,160 L8,160 L8,0 L0,0 Z M16,0 L16,160 L24,160 L24,0 L16,0 Z M32,0 L32,160 L40,160 L40,0 L32,0 Z M48,0 L48,160 L56,160 L56,0 L48,0 Z M64,0 L64,160 L72,160 L72,0 L64,0 Z M80,0 L80,160 L88,160 L88,0 L80,0 Z M96,0 L96,160 L104,160 L104,0 L96,0 Z M112,0 L112,160 L120,160 L120,0 L112,0 Z M128,0 L128,160 L136,160 L136,0 L128,0 Z M144,0 L144,160 L152,160 L152,0 L144,0 Z M160,0 L160,160 L168,160 L168,0 L160,0 Z M176,0 L176,160 L184,160 L184,0 L176,0 Z M192,0 L192,160 L200,160 L200,0 L192,0 Z M208,0 L208,160 L216,160 L216,0 L208,0 Z M224,0 L224,160 L232,160 L232,0 L224,0 Z M240,0 L240,160 L248,160 L248,0 L240,0 Z M256,0 L256,160 L264,160 L264,0 L256,0 Z M272,0 L272,160 L280,160 L280,0 L272,0 Z M288,0 L288,160 L296,160 L296,0 L288,0 Z M304,0 L304,160 L312,160 L312,0 L304,0 Z M320,0 L320,160 L328,160 L328,0 L320,0 Z M336,0 L336,160 L344,160 L344,0 L336,0 Z M352,0 L352,160 L360,160 L360,0 L352,0 Z M368,0 L368,160 L376,160 L376,0 L368,0 Z M384,0 L384,160 L392,160 L392,0 L384,0 Z M0,0 L400,0 L400,8 L0,8 L0,0 Z M0,16 L400,16 L400,24 L0,24 L0,16 Z M0,32 L400,32 L400,40 L0,40 L0,32 Z M0,48 L400,48 L400,56 L0,56 L0,48 Z M0,64 L400,64 L400,72 L0,72 L0,64 Z M0,80 L400,80 L400,88 L0,88 L0,80 Z M0,96 L400,96 L400,104 L0,104 L0,96 Z M0,112 L400,112 L400,120 L0,120 L0,112 Z M0,128 L400,128 L400,136 L0,136 L0,128 Z M0,144 L400,144 L400,152 L0,152 L0,144 Z" id="Shape" fill="#FFFFFF"></path>
                <rect id="Rectangle" fill-opacity="0.8" fill="#222222" x="0" y="0" width="400" height="160"></rect>
            </g>
            <path d="M130.657435,53.6562354 L157,79.9988 L93.0012,144 L77.0003,127.9991 L77.0003,107.313371 L130.657435,53.6562354 Z M60.9994,47.9994 L60.9994,112.0006 L29,79.9988 L60.9994,47.9994 Z M119.343765,42.3425646 L77.0003,84.6860293 L77.0003,31.9985 L93.0012,16 L119.343765,42.3425646 Z" id="Page-1" fill="#FFFFFF"></path>
            <path d="M184.632,136.784 L182.968,120.528 C209.72,118.224 212.792,117.328 213.176,102.864 C209.336,105.552 204.472,107.472 198.328,107.472 C185.144,107.472 175.032,97.232 175.032,81.104 C175.032,60.88 190.904,47.568 210.744,47.568 C217.4,47.568 224.312,48.72 230.968,50.768 C231.224,59.984 231.352,80.336 231.352,94.032 C231.352,118.864 222.648,134.864 184.632,136.784 Z M205.496,93.52 C208.056,93.52 210.616,93.136 213.176,92.24 L213.176,64.208 C209.976,63.312 207.032,62.8 204.088,62.8 C197.048,62.8 192.952,67.408 192.952,76.88 C192.952,88.4 198.584,93.52 205.496,93.52 Z M287.032,40.272 L288.184,21.712 L269.112,21.712 L267.96,40.272 L287.032,40.272 Z M306.488,114 L308.024,100.432 L287.16,100.432 L287.16,49.232 L248.888,49.232 L247.48,62.16 L268.856,63.184 L268.856,100.432 L247.992,100.432 L247.992,114 L306.488,114 Z M369.848,114.896 L371.768,100.048 C353.976,99.664 347.96,97.872 347.96,88.784 L347.96,62.928 L370.488,62.928 L370.488,49.232 L347.96,49.232 L347.96,30.672 L329.912,32.336 L329.912,49.232 L318.392,49.232 L316.856,62.928 L329.912,62.928 L329.912,91.6 C329.912,108.88 339.512,115.664 369.848,114.896 Z" id="git" fill="#FFFFFF"></path>
        </g>
    </g>
</svg>