<?xml version="1.0" encoding="UTF-8"?>
<svg width="320px" height="320px" viewBox="0 0 320 320" version="1.1" xmlns="http://www.w3.org/2000/svg" xmlns:xlink="http://www.w3.org/1999/xlink">
    <!-- Generator: Sketch 42 (36781) - http://www.bohemiancoding.com/sketch -->
    <title>git-white-dark-backgroun-stacked</title>
    <desc>Created with Sketch.</desc>
    <defs></defs>
    <g id="git.com" stroke="none" stroke-width="1" fill="none" fill-rule="evenodd">
        <g id="git-white-dark-backgroun-stacked">
            <g id="bakground">
                <rect id="Rectangle-path" fill="#222222" fill-rule="nonzero" x="0" y="0" width="320" height="320"></rect>
                <path d="M0,0 L0,320 L8,320 L8,0 L0,0 Z M16,0 L16,320 L24,320 L24,0 L16,0 Z M32,0 L32,320 L40,320 L40,0 L32,0 Z M48,0 L48,320 L56,320 L56,0 L48,0 Z M64,0 L64,320 L72,320 L72,0 L64,0 Z M80,0 L80,320 L88,320 L88,0 L80,0 Z M96,0 L96,320 L104,320 L104,0 L96,0 Z M112,0 L112,320 L120,320 L120,0 L112,0 Z M128,0 L128,320 L136,320 L136,0 L128,0 Z M144,0 L144,320 L152,320 L152,0 L144,0 Z M160,0 L160,320 L168,320 L168,0 L160,0 Z M176,0 L176,320 L184,320 L184,0 L176,0 Z M192,0 L192,320 L200,320 L200,0 L192,0 Z M208,0 L208,320 L216,320 L216,0 L208,0 Z M224,0 L224,320 L232,320 L232,0 L224,0 Z M240,0 L240,320 L248,320 L248,0 L240,0 Z M256,0 L256,320 L264,320 L264,0 L256,0 Z M272,0 L272,320 L280,320 L280,0 L272,0 Z M288,0 L288,320 L296,320 L296,0 L288,0 Z M304,0 L304,320 L312,320 L312,0 L304,0 Z M0,0 L320,0 L320,8 L0,8 L0,0 Z M0,16 L320,16 L320,24 L0,24 L0,16 Z M0,32 L320,32 L320,40 L0,40 L0,32 Z M0,48 L320,48 L320,56 L0,56 L0,48 Z M0,64 L320,64 L320,72 L0,72 L0,64 Z M0,80 L320,80 L320,88 L0,88 L0,80 Z M0,96 L320,96 L320,104 L0,104 L0,96 Z M0,112 L320,112 L320,120 L0,120 L0,112 Z M0,128 L320,128 L320,136 L0,136 L0,128 Z M0,144 L320,144 L320,152 L0,152 L0,144 Z M0,160 L320,160 L320,168 L0,168 L0,160 Z M0,176 L320,176 L320,184 L0,184 L0,176 Z M0,192 L320,192 L320,200 L0,200 L0,192 Z M0,208 L320,208 L320,216 L0,216 L0,208 Z M0,224 L320,224 L320,232 L0,232 L0,224 Z M0,240 L320,240 L320,248 L0,248 L0,240 Z M0,256 L320,256 L320,264 L0,264 L0,256 Z M0,272 L320,272 L320,280 L0,280 L0,272 Z M0,288 L320,288 L320,296 L0,296 L0,288 Z M0,304 L320,304 L320,312 L0,312 L0,304 Z" id="Shape" fill="#FFFFFF"></path>
                <rect id="Rectangle" fill-opacity="0.8" fill="#222222" x="0" y="0" width="320" height="320"></rect>
            </g>
            <path d="M197.657435,67.6562354 L224,93.9988 L160.0012,158 L144.0003,141.9991 L144.0003,121.313371 L197.657435,67.6562354 Z M127.9994,61.9994 L127.9994,126.0006 L96,93.9988 L127.9994,61.9994 Z M186.343765,56.3425646 L144.0003,98.6860293 L144.0003,45.9985 L160.0012,30 L186.343765,56.3425646 Z" id="Page-1" fill="#FFFFFF"></path>
            <path d="M71.6,289.072 L69.936,272.816 C96.688,270.512 99.76,269.616 100.144,255.152 C96.304,257.84 91.44,259.76 85.296,259.76 C72.112,259.76 62,249.52 62,233.392 C62,213.168 77.872,199.856 97.712,199.856 C104.368,199.856 111.28,201.008 117.936,203.056 C118.192,212.272 118.32,232.624 118.32,246.32 C118.32,271.152 109.616,287.152 71.6,289.072 Z M92.464,245.808 C95.024,245.808 97.584,245.424 100.144,244.528 L100.144,216.496 C96.944,215.6 94,215.088 91.056,215.088 C84.016,215.088 79.92,219.696 79.92,229.168 C79.92,240.688 85.552,245.808 92.464,245.808 Z M174,192.56 L175.152,174 L156.08,174 L154.928,192.56 L174,192.56 Z M193.456,266.288 L194.992,252.72 L174.128,252.72 L174.128,201.52 L135.856,201.52 L134.448,214.448 L155.824,215.472 L155.824,252.72 L134.96,252.72 L134.96,266.288 L193.456,266.288 Z M256.816,267.184 L258.736,252.336 C240.944,251.952 234.928,250.16 234.928,241.072 L234.928,215.216 L257.456,215.216 L257.456,201.52 L234.928,201.52 L234.928,182.96 L216.88,184.624 L216.88,201.52 L205.36,201.52 L203.824,215.216 L216.88,215.216 L216.88,243.888 C216.88,261.168 226.48,267.952 256.816,267.184 Z" id="git" fill="#FFFFFF"></path>
        </g>
    </g>
</svg>