<?xml version="1.0" encoding="UTF-8"?>
<svg width="512px" height="512px" viewBox="0 0 512 512" version="1.1" xmlns="http://www.w3.org/2000/svg" xmlns:xlink="http://www.w3.org/1999/xlink">
    <!-- Generator: Sketch 42 (36781) - http://www.bohemiancoding.com/sketch -->
    <title>design-rationale</title>
    <desc>Created with Sketch.</desc>
    <defs></defs>
    <g id="git.com" stroke="none" stroke-width="1" fill="none" fill-rule="evenodd">
        <g id="design-rationale">
            <g id="Grid" stroke-linecap="square" stroke-opacity="0.3" stroke="#212121" stroke-width="0.5">
                <g id="vertical" transform="translate(31.000000, 0.000000)">
                    <path d="M1,0 L1,512" id="v1"></path>
                    <path d="M33,0 L33,512" id="v2"></path>
                    <path d="M65,0 L65,512" id="v3"></path>
                    <path d="M97,0 L97,512" id="v1-copy"></path>
                    <path d="M129,0 L129,512" id="v2-copy"></path>
                    <path d="M161,0 L161,512" id="v3-copy"></path>
                    <path d="M193,0 L193,512" id="v1-copy-2"></path>
                    <path d="M225,0 L225,512" id="v2-copy-2"></path>
                    <path d="M257,0 L257,512" id="v3-copy-2"></path>
                    <path d="M289,0 L289,512" id="v1-copy-3"></path>
                    <path d="M321,0 L321,512" id="v2-copy-3"></path>
                    <path d="M353,0 L353,512" id="v3-copy-3"></path>
                    <path d="M385,0 L385,512" id="v1-copy-4"></path>
                    <path d="M417,0 L417,512" id="v2-copy-4"></path>
                    <path d="M449,0 L449,512" id="v3-copy-4"></path>
                </g>
                <g id="horizontal" transform="translate(256.000000, 255.500000) rotate(90.000000) translate(-256.000000, -255.500000) translate(31.500000, -0.500000)">
                    <path d="M1,0 L1,512" id="v1"></path>
                    <path d="M33,0 L33,512" id="v2"></path>
                    <path d="M65,0 L65,512" id="v3"></path>
                    <path d="M97,0 L97,512" id="v1-copy"></path>
                    <path d="M129,0 L129,512" id="v2-copy"></path>
                    <path d="M161,0 L161,512" id="v3-copy"></path>
                    <path d="M193,0 L193,512" id="v1-copy-2"></path>
                    <path d="M225,0 L225,512" id="v2-copy-2"></path>
                    <path d="M257,0 L257,512" id="v3-copy-2"></path>
                    <path d="M289,0 L289,512" id="v1-copy-3"></path>
                    <path d="M321,0 L321,512" id="v2-copy-3"></path>
                    <path d="M353,0 L353,512" id="v3-copy-3"></path>
                    <path d="M385,0 L385,512" id="v1-copy-4"></path>
                    <path d="M417,0 L417,512" id="v2-copy-4"></path>
                    <path d="M448.25,5.68434189e-14 L448.25,512" id="v3-copy-4"></path>
                </g>
            </g>
            <rect id="master" fill-opacity="0.3" fill="#77C6F5" x="128" y="0" width="64" height="512"></rect>
            <rect id="branch" fill-opacity="0.3" fill="#77C6F5" transform="translate(341.646753, 170.646753) rotate(45.000000) translate(-341.646753, -170.646753) " x="309.646753" y="-85.353247" width="64" height="512"></rect>
            <circle id="fork" fill-opacity="0.3" fill="#77C6F5" cx="160" cy="352" r="32"></circle>
            <path d="M137.692425,329.501817 C131.927344,335.100811 128.264208,342.852381 128,351.459541 L159.650148,351.459541 L137.692425,329.501817 Z" id="slice" fill-opacity="0.2" fill="#EB4D3D"></path>
            <path d="M170.292431,351.799988 C164.52735,357.398982 160.864214,365.150552 160.600006,373.757712 L192.250154,373.757712 L170.292431,351.799988 Z" id="slice-copy" fill-opacity="0.2" fill="#EB4D3D" transform="translate(176.425080, 362.778850) scale(-1, -1) translate(-176.425080, -362.778850) "></path>
            <polygon id="Page-1" fill-opacity="0.8" fill="#E15B39" points="406.629741 150.624941 512 255.9952 256.0048 512 192.0012 447.9964 192.0012 365.253483"></polygon>
            <polygon id="Path" fill-opacity="0.8" fill="#E15B39" points="127.9976 127.9976 127.9976 384.0024 0 255.9952"></polygon>
            <polygon id="Path" fill-opacity="0.8" fill="#E15B39" points="361.375059 105.370259 192.0012 274.744117 192.0012 63.994 256.0048 0"></polygon>
            <g id="TOP#DE7E6CBD-38BC-4C2E-BF4E-19359F592C66#C587BD87-03BF-49EB-8503-676971650BB0" transform="translate(107.000000, 0.000000)">
                <rect id="ruler-start" fill-opacity="0.9" fill="#FF3B30" x="18" y="0" width="5" height="1"></rect>
                <rect id="ruler-end" fill-opacity="0.9" fill="#FF3B30" x="18" y="127" width="5" height="1"></rect>
                <rect id="ruler-line" fill-opacity="0.9" fill="#FF3B30" x="20" y="0" width="1" height="128"></rect>
                <polygon id="label-arrow" fill-opacity="0.9" fill="#FF3B30" points="17 64 21 60 25 64 21 68"></polygon>
                <rect id="label-box" fill-opacity="0.9" fill="#FF3B30" x="0" y="53" width="42" height="22" rx="2"></rect>
                <path d="M17.136,66.464 L17.232,65.612 L16.32,65.612 L16.32,62.9 L15.408,63.008 L15.408,65.612 L12.852,65.612 C12.9,64.928 13.668,61.652 13.932,60.548 L12.888,60.476 C12.336,62.696 12.048,65.036 12.084,66.464 L15.408,66.464 L15.408,68 L16.32,68 L16.32,66.464 L17.136,66.464 Z M20.76,67.304 C21.828,67.304 22.668,66.512 22.668,65.036 C22.668,63.572 21.984,62.792 21.06,62.792 C20.592,62.792 20.112,62.984 19.716,63.284 C19.74,64.256 19.764,65.396 19.776,67.124 C20.124,67.244 20.436,67.304 20.76,67.304 Z M19.776,69.98 L18.804,70.064 L18.804,68.024 C18.804,65.18 18.792,63.404 18.732,62.156 L19.62,62.096 L19.68,62.708 C20.124,62.312 20.712,61.988 21.444,61.988 C22.692,61.988 23.628,63.08 23.628,64.796 C23.628,66.908 22.152,68.144 20.412,68.144 C20.208,68.144 19.992,68.132 19.776,68.096 L19.776,69.98 Z M29.28,68.024 L30.36,67.964 L28.236,65.048 L30.384,62.12 L29.34,62.12 L27.648,64.508 L25.896,62.096 L24.828,62.156 L26.976,65.072 L24.816,68 L25.848,68 L27.552,65.624 L29.28,68.024 Z" id="4px" fill="#FFFFFF"></path>
            </g>
            <g id="BOTTOM#DE7E6CBD-38BC-4C2E-BF4E-19359F592C66#C587BD87-03BF-49EB-8503-676971650BB0" transform="translate(107.000000, 384.000000)">
                <rect id="ruler-start" fill-opacity="0.9" fill="#FF3B30" x="18" y="0" width="5" height="1"></rect>
                <rect id="ruler-end" fill-opacity="0.9" fill="#FF3B30" x="18" y="127" width="5" height="1"></rect>
                <rect id="ruler-line" fill-opacity="0.9" fill="#FF3B30" x="20" y="0" width="1" height="128"></rect>
                <polygon id="label-arrow" fill-opacity="0.9" fill="#FF3B30" points="17 64 21 60 25 64 21 68"></polygon>
                <rect id="label-box" fill-opacity="0.9" fill="#FF3B30" x="0" y="53" width="42" height="22" rx="2"></rect>
                <path d="M17.136,66.464 L17.232,65.612 L16.32,65.612 L16.32,62.9 L15.408,63.008 L15.408,65.612 L12.852,65.612 C12.9,64.928 13.668,61.652 13.932,60.548 L12.888,60.476 C12.336,62.696 12.048,65.036 12.084,66.464 L15.408,66.464 L15.408,68 L16.32,68 L16.32,66.464 L17.136,66.464 Z M20.76,67.304 C21.828,67.304 22.668,66.512 22.668,65.036 C22.668,63.572 21.984,62.792 21.06,62.792 C20.592,62.792 20.112,62.984 19.716,63.284 C19.74,64.256 19.764,65.396 19.776,67.124 C20.124,67.244 20.436,67.304 20.76,67.304 Z M19.776,69.98 L18.804,70.064 L18.804,68.024 C18.804,65.18 18.792,63.404 18.732,62.156 L19.62,62.096 L19.68,62.708 C20.124,62.312 20.712,61.988 21.444,61.988 C22.692,61.988 23.628,63.08 23.628,64.796 C23.628,66.908 22.152,68.144 20.412,68.144 C20.208,68.144 19.992,68.132 19.776,68.096 L19.776,69.98 Z M29.28,68.024 L30.36,67.964 L28.236,65.048 L30.384,62.12 L29.34,62.12 L27.648,64.508 L25.896,62.096 L24.828,62.156 L26.976,65.072 L24.816,68 L25.848,68 L27.552,65.624 L29.28,68.024 Z" id="4px" fill="#FFFFFF"></path>
            </g>
            <g id="HORIZONTAL#1DC565DC-BA1B-404B-A0E4-297902143CC3#DE7E6CBD-38BC-4C2E-BF4E-19359F592C66" transform="translate(128.000000, 181.000000)">
                <rect id="ruler-start" fill-opacity="0.9" fill="#FF3B30" x="0" y="8" width="1" height="5"></rect>
                <rect id="ruler-end" fill-opacity="0.9" fill="#FF3B30" x="63" y="8" width="1" height="5"></rect>
                <rect id="ruler-line" fill-opacity="0.9" fill="#FF3B30" x="0" y="10" width="64" height="1"></rect>
                <polygon id="label-arrow" fill-opacity="0.9" fill="#FF3B30" points="28 11 32 7 36 11 32 15"></polygon>
                <rect id="label-box" fill-opacity="0.9" fill="#FF3B30" x="14" y="0" width="35" height="22" rx="2"></rect>
                <path d="M27.372,15 L27.372,14.148 L23.664,14.148 C25.872,12.36 27.132,11.16 27.132,9.636 C27.132,8.4 26.172,7.428 22.812,7.464 L22.728,8.376 C25.428,8.388 26.172,8.94 26.172,9.864 C26.172,11.088 24.888,12.276 22.5,14.208 L22.596,15 L27.372,15 Z M31.26,14.304 C32.328,14.304 33.168,13.512 33.168,12.036 C33.168,10.572 32.484,9.792 31.56,9.792 C31.092,9.792 30.612,9.984 30.216,10.284 C30.24,11.256 30.264,12.396 30.276,14.124 C30.624,14.244 30.936,14.304 31.26,14.304 Z M30.276,16.98 L29.304,17.064 L29.304,15.024 C29.304,12.18 29.292,10.404 29.232,9.156 L30.12,9.096 L30.18,9.708 C30.624,9.312 31.212,8.988 31.944,8.988 C33.192,8.988 34.128,10.08 34.128,11.796 C34.128,13.908 32.652,15.144 30.912,15.144 C30.708,15.144 30.492,15.132 30.276,15.096 L30.276,16.98 Z M39.78,15.024 L40.86,14.964 L38.736,12.048 L40.884,9.12 L39.84,9.12 L38.148,11.508 L36.396,9.096 L35.328,9.156 L37.476,12.072 L35.316,15 L36.348,15 L38.052,12.624 L39.78,15.024 Z" id="2px" fill="#FFFFFF"></path>
            </g>
            <g id="ANGLE-#1DC565DC-BA1B-404B-A0E4-297902143CC3#DE7E6CBD-38BC-4C2E-BF4E-19359F592C66-Copy" transform="translate(382.405592, 129.405592) rotate(45.000000) translate(-382.405592, -129.405592) translate(350.405592, 118.405592)">
                <rect id="ruler-start" fill-opacity="0.9" fill="#FF3B30" x="5.68434189e-14" y="8" width="1" height="5"></rect>
                <rect id="ruler-end" fill-opacity="0.9" fill="#FF3B30" x="63" y="8" width="1" height="5"></rect>
                <rect id="ruler-line" fill-opacity="0.9" fill="#FF3B30" x="5.68434189e-14" y="10" width="64" height="1"></rect>
                <polygon id="label-arrow" fill-opacity="0.9" fill="#FF3B30" points="28 11 32 7 36 11 32 15"></polygon>
                <rect id="label-box" fill-opacity="0.9" fill="#FF3B30" x="14" y="0" width="35" height="22" rx="2"></rect>
                <path d="M27.372,15 L27.372,14.148 L23.664,14.148 C25.872,12.36 27.132,11.16 27.132,9.636 C27.132,8.4 26.172,7.428 22.812,7.464 L22.728,8.376 C25.428,8.388 26.172,8.94 26.172,9.864 C26.172,11.088 24.888,12.276 22.5,14.208 L22.596,15 L27.372,15 Z M31.26,14.304 C32.328,14.304 33.168,13.512 33.168,12.036 C33.168,10.572 32.484,9.792 31.56,9.792 C31.092,9.792 30.612,9.984 30.216,10.284 C30.24,11.256 30.264,12.396 30.276,14.124 C30.624,14.244 30.936,14.304 31.26,14.304 Z M30.276,16.98 L29.304,17.064 L29.304,15.024 C29.304,12.18 29.292,10.404 29.232,9.156 L30.12,9.096 L30.18,9.708 C30.624,9.312 31.212,8.988 31.944,8.988 C33.192,8.988 34.128,10.08 34.128,11.796 C34.128,13.908 32.652,15.144 30.912,15.144 C30.708,15.144 30.492,15.132 30.276,15.096 L30.276,16.98 Z M39.78,15.024 L40.86,14.964 L38.736,12.048 L40.884,9.12 L39.84,9.12 L38.148,11.508 L36.396,9.096 L35.328,9.156 L37.476,12.072 L35.316,15 L36.348,15 L38.052,12.624 L39.78,15.024 Z" id="2px" fill="#FFFFFF"></path>
            </g>
            <g id="ROTATION#1DC565DC-BA1B-404B-A0E4-297902143CC3#DE7E6CBD-38BC-4C2E-BF4E-19359F592C66-Copy-2" transform="translate(160.353553, 351.646447) rotate(45.000000) translate(-160.353553, -351.646447) translate(128.353553, 349.146447)" fill="#FF3B30" fill-opacity="0.9">
                <rect id="ruler-start" x="0" y="-1.13686838e-13" width="1" height="5"></rect>
                <rect id="ruler-end" x="63" y="-8.52651283e-14" width="1" height="5"></rect>
                <rect id="ruler-line" x="-5.68434189e-14" y="2" width="64" height="1"></rect>
            </g>
            <g id="ROTATION#1DC565DC-BA1B-404B-A0E4-297902143CC3#DE7E6CBD-38BC-4C2E-BF4E-19359F592C66-Copy" transform="translate(128.000000, 341.000000)">
                <rect id="ruler-start" fill-opacity="0.9" fill="#FF3B30" x="0" y="8" width="1" height="5"></rect>
                <rect id="ruler-end" fill-opacity="0.9" fill="#FF3B30" x="63" y="8" width="1" height="5"></rect>
                <rect id="ruler-line" fill-opacity="0.9" fill="#FF3B30" x="0" y="10" width="64" height="1"></rect>
                <polygon id="label-arrow" fill-opacity="0.9" fill="#FF3B30" points="28 11 32 7 36 11 32 15"></polygon>
                <rect id="label-box" fill-opacity="0.9" fill="#FF3B30" x="14" y="0" width="35" height="22" rx="2"></rect>
                <path d="M27.636,13.464 L27.732,12.612 L26.82,12.612 L26.82,9.9 L25.908,10.008 L25.908,12.612 L23.352,12.612 C23.4,11.928 24.168,8.652 24.432,7.548 L23.388,7.476 C22.836,9.696 22.548,12.036 22.584,13.464 L25.908,13.464 L25.908,15 L26.82,15 L26.82,13.464 L27.636,13.464 Z M33.852,12.528 C33.852,11.568 33.036,10.74 30.372,10.464 L30.504,8.412 L33.54,8.412 L33.624,7.56 L29.688,7.56 L29.448,11.124 C32.088,11.328 32.94,11.892 32.94,12.576 C32.94,13.464 31.992,13.992 29.28,14.244 L29.34,15.144 C32.472,14.904 33.852,13.872 33.852,12.528 Z M40.2,9.024 C40.2,10.38 39.18,11.244 38.028,11.244 C36.876,11.244 36,10.428 36,9.12 C36,7.764 37.02,6.888 38.172,6.888 C39.336,6.888 40.2,7.716 40.2,9.024 Z M39.408,9.024 C39.42,8.232 38.88,7.632 38.112,7.632 C37.368,7.632 36.804,8.196 36.792,9.072 C36.78,9.888 37.32,10.512 38.088,10.512 C38.832,10.512 39.396,9.936 39.408,9.024 Z" id="45°" fill="#FFFFFF"></path>
            </g>
            <g id="LEFT#1DC565DC-BA1B-404B-A0E4-297902143CC3#C587BD87-03BF-49EB-8503-676971650BB0" transform="translate(0.000000, 86.000000)">
                <rect id="ruler-start" fill-opacity="0.9" fill="#FF3B30" x="0" y="8" width="1" height="5"></rect>
                <rect id="ruler-end" fill-opacity="0.9" fill="#FF3B30" x="191" y="8" width="1" height="5"></rect>
                <rect id="ruler-line" fill-opacity="0.9" fill="#FF3B30" x="0" y="10" width="192" height="1"></rect>
                <polygon id="label-arrow" fill-opacity="0.9" fill="#FF3B30" points="92 11 96 7 100 11 96 15"></polygon>
                <rect id="label-box" fill-opacity="0.9" fill="#FF3B30" x="75" y="0" width="42" height="22" rx="2"></rect>
                <path d="M89.4,15.132 C87.936,15.132 86.928,14.124 86.928,12.24 C86.928,10.164 88.08,8.496 90.612,7.296 L91.008,8.136 C89.052,8.964 88.188,9.972 87.936,11.244 C89.616,9.792 91.908,10.488 91.908,12.6 C91.908,14.16 90.744,15.132 89.4,15.132 Z M89.484,14.34 C90.324,14.34 90.996,13.728 90.996,12.708 C90.996,11.088 89.364,10.68 87.852,11.88 L87.852,12.132 C87.852,13.632 88.548,14.34 89.484,14.34 Z M95.76,14.304 C96.828,14.304 97.668,13.512 97.668,12.036 C97.668,10.572 96.984,9.792 96.06,9.792 C95.592,9.792 95.112,9.984 94.716,10.284 C94.74,11.256 94.764,12.396 94.776,14.124 C95.124,14.244 95.436,14.304 95.76,14.304 Z M94.776,16.98 L93.804,17.064 L93.804,15.024 C93.804,12.18 93.792,10.404 93.732,9.156 L94.62,9.096 L94.68,9.708 C95.124,9.312 95.712,8.988 96.444,8.988 C97.692,8.988 98.628,10.08 98.628,11.796 C98.628,13.908 97.152,15.144 95.412,15.144 C95.208,15.144 94.992,15.132 94.776,15.096 L94.776,16.98 Z M104.28,15.024 L105.36,14.964 L103.236,12.048 L105.384,9.12 L104.34,9.12 L102.648,11.508 L100.896,9.096 L99.828,9.156 L101.976,12.072 L99.816,15 L100.848,15 L102.552,12.624 L104.28,15.024 Z" id="6px" fill="#FFFFFF"></path>
            </g>
            <g id="LEFT#2BC31EB1-7EF9-4E94-810D-F258A8D63187#C587BD87-03BF-49EB-8503-676971650BB0" transform="translate(0.000000, 406.000000)">
                <rect id="ruler-start" fill-opacity="0.9" fill="#FF3B30" x="0" y="8" width="1" height="5"></rect>
                <rect id="ruler-end" fill-opacity="0.9" fill="#FF3B30" x="191" y="8" width="1" height="5"></rect>
                <rect id="ruler-line" fill-opacity="0.9" fill="#FF3B30" x="0" y="10" width="192" height="1"></rect>
                <polygon id="label-arrow" fill-opacity="0.9" fill="#FF3B30" points="92 11 96 7 100 11 96 15"></polygon>
                <rect id="label-box" fill-opacity="0.9" fill="#FF3B30" x="75" y="0" width="42" height="22" rx="2"></rect>
                <path d="M89.4,15.132 C87.936,15.132 86.928,14.124 86.928,12.24 C86.928,10.164 88.08,8.496 90.612,7.296 L91.008,8.136 C89.052,8.964 88.188,9.972 87.936,11.244 C89.616,9.792 91.908,10.488 91.908,12.6 C91.908,14.16 90.744,15.132 89.4,15.132 Z M89.484,14.34 C90.324,14.34 90.996,13.728 90.996,12.708 C90.996,11.088 89.364,10.68 87.852,11.88 L87.852,12.132 C87.852,13.632 88.548,14.34 89.484,14.34 Z M95.76,14.304 C96.828,14.304 97.668,13.512 97.668,12.036 C97.668,10.572 96.984,9.792 96.06,9.792 C95.592,9.792 95.112,9.984 94.716,10.284 C94.74,11.256 94.764,12.396 94.776,14.124 C95.124,14.244 95.436,14.304 95.76,14.304 Z M94.776,16.98 L93.804,17.064 L93.804,15.024 C93.804,12.18 93.792,10.404 93.732,9.156 L94.62,9.096 L94.68,9.708 C95.124,9.312 95.712,8.988 96.444,8.988 C97.692,8.988 98.628,10.08 98.628,11.796 C98.628,13.908 97.152,15.144 95.412,15.144 C95.208,15.144 94.992,15.132 94.776,15.096 L94.776,16.98 Z M104.28,15.024 L105.36,14.964 L103.236,12.048 L105.384,9.12 L104.34,9.12 L102.648,11.508 L100.896,9.096 L99.828,9.156 L101.976,12.072 L99.816,15 L100.848,15 L102.552,12.624 L104.28,15.024 Z" id="6px" fill="#FFFFFF"></path>
            </g>
            <g id="WIDTH#C587BD87-03BF-49EB-8503-676971650BB0" transform="translate(0.000000, 245.000000)">
                <rect id="ruler-start" fill-opacity="0.9" fill="#FF3B30" x="0" y="8" width="1" height="5"></rect>
                <rect id="ruler-end" fill-opacity="0.9" fill="#FF3B30" x="511" y="8" width="1" height="5"></rect>
                <rect id="ruler-line" fill-opacity="0.9" fill="#FF3B30" x="0" y="10" width="512" height="1"></rect>
                <polygon id="label-arrow" fill-opacity="0.9" fill="#FF3B30" points="252 11 256 7 260 11 256 15"></polygon>
                <rect id="label-box" fill-opacity="0.9" fill="#FF3B30" x="235" y="0" width="42" height="22" rx="2"></rect>
                <path d="M245.152,12.528 C245.152,11.568 244.336,10.74 241.672,10.464 L241.804,8.412 L244.84,8.412 L244.924,7.56 L240.988,7.56 L240.748,11.124 C243.388,11.328 244.24,11.892 244.24,12.576 C244.24,13.464 243.292,13.992 240.58,14.244 L240.64,15.144 C243.772,14.904 245.152,13.872 245.152,12.528 Z M251.932,15 L252.016,14.172 L250.18,14.172 L250.18,7.296 L249.232,7.38 L249.232,8.232 L247.324,8.46 L247.336,9.168 L249.232,9.072 L249.232,14.172 L247.18,14.172 L247.18,15 L251.932,15 Z M258.472,15 L258.472,14.148 L254.764,14.148 C256.972,12.36 258.232,11.16 258.232,9.636 C258.232,8.4 257.272,7.428 253.912,7.464 L253.828,8.376 C256.528,8.388 257.272,8.94 257.272,9.864 C257.272,11.088 255.988,12.276 253.6,14.208 L253.696,15 L258.472,15 Z M262.36,14.304 C263.428,14.304 264.268,13.512 264.268,12.036 C264.268,10.572 263.584,9.792 262.66,9.792 C262.192,9.792 261.712,9.984 261.316,10.284 C261.34,11.256 261.364,12.396 261.376,14.124 C261.724,14.244 262.036,14.304 262.36,14.304 Z M261.376,16.98 L260.404,17.064 L260.404,15.024 C260.404,12.18 260.392,10.404 260.332,9.156 L261.22,9.096 L261.28,9.708 C261.724,9.312 262.312,8.988 263.044,8.988 C264.292,8.988 265.228,10.08 265.228,11.796 C265.228,13.908 263.752,15.144 262.012,15.144 C261.808,15.144 261.592,15.132 261.376,15.096 L261.376,16.98 Z M270.88,15.024 L271.96,14.964 L269.836,12.048 L271.984,9.12 L270.94,9.12 L269.248,11.508 L267.496,9.096 L266.428,9.156 L268.576,12.072 L266.416,15 L267.448,15 L269.152,12.624 L270.88,15.024 Z" id="label-text" fill="#FFFFFF"></path>
            </g>
            <g id="HEIGHT#C587BD87-03BF-49EB-8503-676971650BB0" transform="translate(235.000000, 0.000000)">
                <rect id="ruler-start" fill-opacity="0.9" fill="#FF3B30" x="18" y="0" width="5" height="1"></rect>
                <rect id="ruler-end" fill-opacity="0.9" fill="#FF3B30" x="18" y="511" width="5" height="1"></rect>
                <rect id="ruler-line" fill-opacity="0.9" fill="#FF3B30" x="20" y="0" width="1" height="512"></rect>
                <polygon id="label-arrow" fill-opacity="0.9" fill="#FF3B30" points="17 256 21 252 25 256 21 260"></polygon>
                <rect id="label-box" fill-opacity="0.9" fill="#FF3B30" x="0" y="245" width="42" height="22" rx="2"></rect>
                <path d="M13.632,260 L13.716,259.172 L11.88,259.172 L11.88,252.296 L10.932,252.38 L10.932,253.232 L9.024,253.46 L9.036,254.168 L10.932,254.072 L10.932,259.172 L8.88,259.172 L8.88,260 L13.632,260 Z M17.7,260.132 C16.236,260.132 15.228,259.124 15.228,257.24 C15.228,255.164 16.38,253.496 18.912,252.296 L19.308,253.136 C17.352,253.964 16.488,254.972 16.236,256.244 C17.916,254.792 20.208,255.488 20.208,257.6 C20.208,259.16 19.044,260.132 17.7,260.132 Z M17.784,259.34 C18.624,259.34 19.296,258.728 19.296,257.708 C19.296,256.088 17.664,255.68 16.152,256.88 L16.152,257.132 C16.152,258.632 16.848,259.34 17.784,259.34 Z M24.06,259.304 C25.128,259.304 25.968,258.512 25.968,257.036 C25.968,255.572 25.284,254.792 24.36,254.792 C23.892,254.792 23.412,254.984 23.016,255.284 C23.04,256.256 23.064,257.396 23.076,259.124 C23.424,259.244 23.736,259.304 24.06,259.304 Z M23.076,261.98 L22.104,262.064 L22.104,260.024 C22.104,257.18 22.092,255.404 22.032,254.156 L22.92,254.096 L22.98,254.708 C23.424,254.312 24.012,253.988 24.744,253.988 C25.992,253.988 26.928,255.08 26.928,256.796 C26.928,258.908 25.452,260.144 23.712,260.144 C23.508,260.144 23.292,260.132 23.076,260.096 L23.076,261.98 Z M32.58,260.024 L33.66,259.964 L31.536,257.048 L33.684,254.12 L32.64,254.12 L30.948,256.508 L29.196,254.096 L28.128,254.156 L30.276,257.072 L28.116,260 L29.148,260 L30.852,257.624 L32.58,260.024 Z" id="16px" fill="#FFFFFF"></path>
            </g>
        </g>
    </g>
</svg>