<?xml version="1.0" encoding="UTF-8"?>
<svg width="400px" height="160px" viewBox="0 0 400 160" version="1.1" xmlns="http://www.w3.org/2000/svg" xmlns:xlink="http://www.w3.org/1999/xlink">
    <!-- Generator: Sketch 42 (36781) - http://www.bohemiancoding.com/sketch -->
    <title>git-full-color-light-background</title>
    <desc>Created with Sketch.</desc>
    <defs></defs>
    <g id="git.com" stroke="none" stroke-width="1" fill="none" fill-rule="evenodd">
        <g id="git-full-color-light-background">
            <path d="M130.657435,53.6562354 L157,79.9988 L93.0012,144 L77.0003,127.9991 L77.0003,107.313371 L130.657435,53.6562354 Z M60.9994,47.9994 L60.9994,112.0006 L29,79.9988 L60.9994,47.9994 Z M119.343765,42.3425646 L77.0003,84.6860293 L77.0003,31.9985 L93.0012,16 L119.343765,42.3425646 Z" id="Page-1" fill="#E15B39"></path>
            <path d="M184.632,136.784 L182.968,120.528 C209.72,118.224 212.792,117.328 213.176,102.864 C209.336,105.552 204.472,107.472 198.328,107.472 C185.144,107.472 175.032,97.232 175.032,81.104 C175.032,60.88 190.904,47.568 210.744,47.568 C217.4,47.568 224.312,48.72 230.968,50.768 C231.224,59.984 231.352,80.336 231.352,94.032 C231.352,118.864 222.648,134.864 184.632,136.784 Z M205.496,93.52 C208.056,93.52 210.616,93.136 213.176,92.24 L213.176,64.208 C209.976,63.312 207.032,62.8 204.088,62.8 C197.048,62.8 192.952,67.408 192.952,76.88 C192.952,88.4 198.584,93.52 205.496,93.52 Z M287.032,40.272 L288.184,21.712 L269.112,21.712 L267.96,40.272 L287.032,40.272 Z M306.488,114 L308.024,100.432 L287.16,100.432 L287.16,49.232 L248.888,49.232 L247.48,62.16 L268.856,63.184 L268.856,100.432 L247.992,100.432 L247.992,114 L306.488,114 Z M369.848,114.896 L371.768,100.048 C353.976,99.664 347.96,97.872 347.96,88.784 L347.96,62.928 L370.488,62.928 L370.488,49.232 L347.96,49.232 L347.96,30.672 L329.912,32.336 L329.912,49.232 L318.392,49.232 L316.856,62.928 L329.912,62.928 L329.912,91.6 C329.912,108.88 339.512,115.664 369.848,114.896 Z" id="git" fill="#171219"></path>
        </g>
    </g>
</svg>