<?xml version="1.0" encoding="UTF-8"?>
<svg width="400px" height="150px" viewBox="0 0 400 150" version="1.1" xmlns="http://www.w3.org/2000/svg" xmlns:xlink="http://www.w3.org/1999/xlink">
    <!-- Generator: Sketch 42 (36781) - http://www.bohemiancoding.com/sketch -->
    <title>git-white-dark-background</title>
    <desc>Created with Sketch.</desc>
    <defs></defs>
    <g id="git.com" stroke="none" stroke-width="1" fill="none" fill-rule="evenodd">
        <g id="git-white-dark-background">
            <g id="Black-white-1px-checkers" transform="translate(0.000000, -25.000000)">
                <rect id="Rectangle-path" fill="#222222" fill-rule="nonzero" x="0" y="25" width="400" height="200"></rect>
                <path d="M0,0 L0,200 L16,200 L16,0 L0,0 Z M32,0 L32,200 L48,200 L48,0 L32,0 Z M64,0 L64,200 L80,200 L80,0 L64,0 Z M96,0 L96,200 L112,200 L112,0 L96,0 Z M128,0 L128,200 L144,200 L144,0 L128,0 Z M160,0 L160,200 L176,200 L176,0 L160,0 Z M192,0 L192,200 L208,200 L208,0 L192,0 Z M224,0 L224,200 L240,200 L240,0 L224,0 Z M256,0 L256,200 L272,200 L272,0 L256,0 Z M288,0 L288,200 L304,200 L304,0 L288,0 Z M320,0 L320,200 L336,200 L336,0 L320,0 Z M352,0 L352,200 L368,200 L368,0 L352,0 Z M384,0 L384,200 L400,200 L400,0 L384,0 Z M0,0 L400,0 L400,8 L0,8 L0,0 Z M0,16 L400,16 L400,24 L0,24 L0,16 Z M0,32 L400,32 L400,40 L0,40 L0,32 Z M0,48 L400,48 L400,56 L0,56 L0,48 Z M0,64 L400,64 L400,72 L0,72 L0,64 Z M0,80 L400,80 L400,88 L0,88 L0,80 Z M0,96 L400,96 L400,104 L0,104 L0,96 Z M0,112 L400,112 L400,120 L0,120 L0,112 Z M0,128 L400,128 L400,136 L0,136 L0,128 Z M0,144 L400,144 L400,152 L0,152 L0,144 Z M0,160 L400,160 L400,168 L0,168 L0,160 Z M0,176 L400,176 L400,184 L0,184 L0,176 Z M0,192 L400,192 L400,200 L0,200 L0,192 Z" id="Shape" fill="#FFFFFF"></path>
                <rect id="Rectangle" fill-opacity="0.8" fill="#222222" x="0" y="25" width="400" height="150"></rect>
            </g>
            <path d="M128.657435,48.6562354 L155,74.9988 L91.0012,139 L75.0003,122.9991 L75.0003,102.313371 L128.657435,48.6562354 Z M58.9994,42.9994 L58.9994,107.0006 L27,74.9988 L58.9994,42.9994 Z M117.343765,37.3425646 L75.0003,79.6860293 L75.0003,26.9985 L91.0012,11 L117.343765,37.3425646 Z" id="Page-1" fill="#FFFFFF"></path>
            <path d="M186.632,131.784 L184.968,115.528 C211.72,113.224 214.792,112.328 215.176,97.864 C211.336,100.552 206.472,102.472 200.328,102.472 C187.144,102.472 177.032,92.232 177.032,76.104 C177.032,55.88 192.904,42.568 212.744,42.568 C219.4,42.568 226.312,43.72 232.968,45.768 C233.224,54.984 233.352,75.336 233.352,89.032 C233.352,113.864 224.648,129.864 186.632,131.784 Z M207.496,88.52 C210.056,88.52 212.616,88.136 215.176,87.24 L215.176,59.208 C211.976,58.312 209.032,57.8 206.088,57.8 C199.048,57.8 194.952,62.408 194.952,71.88 C194.952,83.4 200.584,88.52 207.496,88.52 Z M289.032,35.272 L290.184,16.712 L271.112,16.712 L269.96,35.272 L289.032,35.272 Z M308.488,109 L310.024,95.432 L289.16,95.432 L289.16,44.232 L250.888,44.232 L249.48,57.16 L270.856,58.184 L270.856,95.432 L249.992,95.432 L249.992,109 L308.488,109 Z M371.848,109.896 L373.768,95.048 C355.976,94.664 349.96,92.872 349.96,83.784 L349.96,57.928 L372.488,57.928 L372.488,44.232 L349.96,44.232 L349.96,25.672 L331.912,27.336 L331.912,44.232 L320.392,44.232 L318.856,57.928 L331.912,57.928 L331.912,86.6 C331.912,103.88 341.512,110.664 371.848,109.896 Z" id="git" fill="#FFFFFF"></path>
        </g>
    </g>
</svg>