<?xml version="1.0" encoding="UTF-8"?>
<svg width="400px" height="150px" viewBox="0 0 400 150" version="1.1" xmlns="http://www.w3.org/2000/svg" xmlns:xlink="http://www.w3.org/1999/xlink">
    <!-- Generator: Sketch 42 (36781) - http://www.bohemiancoding.com/sketch -->
    <title>git-full-color-light-background</title>
    <desc>Created with Sketch.</desc>
    <defs></defs>
    <g id="git.com" stroke="none" stroke-width="1" fill="none" fill-rule="evenodd">
        <g id="git-full-color-light-background">
            <path d="M128.657435,48.6562354 L155,74.9988 L91.0012,139 L75.0003,122.9991 L75.0003,102.313371 L128.657435,48.6562354 Z M58.9994,42.9994 L58.9994,107.0006 L27,74.9988 L58.9994,42.9994 Z M117.343765,37.3425646 L75.0003,79.6860293 L75.0003,26.9985 L91.0012,11 L117.343765,37.3425646 Z" id="Page-1" fill="#E15B39"></path>
            <path d="M186.632,131.784 L184.968,115.528 C211.72,113.224 214.792,112.328 215.176,97.864 C211.336,100.552 206.472,102.472 200.328,102.472 C187.144,102.472 177.032,92.232 177.032,76.104 C177.032,55.88 192.904,42.568 212.744,42.568 C219.4,42.568 226.312,43.72 232.968,45.768 C233.224,54.984 233.352,75.336 233.352,89.032 C233.352,113.864 224.648,129.864 186.632,131.784 Z M207.496,88.52 C210.056,88.52 212.616,88.136 215.176,87.24 L215.176,59.208 C211.976,58.312 209.032,57.8 206.088,57.8 C199.048,57.8 194.952,62.408 194.952,71.88 C194.952,83.4 200.584,88.52 207.496,88.52 Z M289.032,35.272 L290.184,16.712 L271.112,16.712 L269.96,35.272 L289.032,35.272 Z M308.488,109 L310.024,95.432 L289.16,95.432 L289.16,44.232 L250.888,44.232 L249.48,57.16 L270.856,58.184 L270.856,95.432 L249.992,95.432 L249.992,109 L308.488,109 Z M371.848,109.896 L373.768,95.048 C355.976,94.664 349.96,92.872 349.96,83.784 L349.96,57.928 L372.488,57.928 L372.488,44.232 L349.96,44.232 L349.96,25.672 L331.912,27.336 L331.912,44.232 L320.392,44.232 L318.856,57.928 L331.912,57.928 L331.912,86.6 C331.912,103.88 341.512,110.664 371.848,109.896 Z" id="git" fill="#171219"></path>
        </g>
    </g>
</svg>