<?xml version="1.0" encoding="UTF-8"?>
<svg width="150px" height="150px" viewBox="0 0 150 150" version="1.1" xmlns="http://www.w3.org/2000/svg" xmlns:xlink="http://www.w3.org/1999/xlink">
    <!-- Generator: Sketch 42 (36781) - http://www.bohemiancoding.com/sketch -->
    <title>git-logo-white</title>
    <desc>Created with Sketch.</desc>
    <defs></defs>
    <g id="git.com" stroke="none" stroke-width="1" fill="none" fill-rule="evenodd">
        <g id="git-logo-white">
            <g id="Black-white-1px-checkers" transform="translate(-125.000000, -37.000000)">
                <rect id="Rectangle-path" fill="#222222" fill-rule="nonzero" x="0" y="25" width="400" height="200"></rect>
                <path d="M0,0 L0,200 L16,200 L16,0 L0,0 Z M32,0 L32,200 L48,200 L48,0 L32,0 Z M64,0 L64,200 L80,200 L80,0 L64,0 Z M96,0 L96,200 L112,200 L112,0 L96,0 Z M128,0 L128,200 L144,200 L144,0 L128,0 Z M160,0 L160,200 L176,200 L176,0 L160,0 Z M192,0 L192,200 L208,200 L208,0 L192,0 Z M224,0 L224,200 L240,200 L240,0 L224,0 Z M256,0 L256,200 L272,200 L272,0 L256,0 Z M288,0 L288,200 L304,200 L304,0 L288,0 Z M320,0 L320,200 L336,200 L336,0 L320,0 Z M352,0 L352,200 L368,200 L368,0 L352,0 Z M384,0 L384,200 L400,200 L400,0 L384,0 Z M0,0 L400,0 L400,8 L0,8 L0,0 Z M0,16 L400,16 L400,24 L0,24 L0,16 Z M0,32 L400,32 L400,40 L0,40 L0,32 Z M0,48 L400,48 L400,56 L0,56 L0,48 Z M0,64 L400,64 L400,72 L0,72 L0,64 Z M0,80 L400,80 L400,88 L0,88 L0,80 Z M0,96 L400,96 L400,104 L0,104 L0,96 Z M0,112 L400,112 L400,120 L0,120 L0,112 Z M0,128 L400,128 L400,136 L0,136 L0,128 Z M0,144 L400,144 L400,152 L0,152 L0,144 Z M0,160 L400,160 L400,168 L0,168 L0,160 Z M0,176 L400,176 L400,184 L0,184 L0,176 Z M0,192 L400,192 L400,200 L0,200 L0,192 Z" id="Shape" fill="#FFFFFF"></path>
                <rect id="Rectangle" fill-opacity="0.8" fill="#222222" x="125" y="37" width="150" height="150"></rect>
            </g>
            <path d="M112.657435,48.6562354 L139,74.9988 L75.0012,139 L59.0003,122.9991 L59.0003,102.313371 L112.657435,48.6562354 Z M42.9994,42.9994 L42.9994,107.0006 L11,74.9988 L42.9994,42.9994 Z M101.343765,37.3425646 L59.0003,79.6860293 L59.0003,26.9985 L75.0012,11 L101.343765,37.3425646 Z" id="Page-1" fill="#FFFFFF"></path>
        </g>
    </g>
</svg>