<?xml version="1.0" encoding="UTF-8"?>
<svg width="350px" height="350px" viewBox="0 0 350 350" version="1.1" xmlns="http://www.w3.org/2000/svg" xmlns:xlink="http://www.w3.org/1999/xlink">
    <!-- Generator: Sketch 42 (36781) - http://www.bohemiancoding.com/sketch -->
    <title>stacked-lockup</title>
    <desc>Created with Sketch.</desc>
    <defs>
        <path d="M212.657435,82.6562354 L239,108.9988 L175.0012,173 L159.0003,156.9991 L159.0003,136.313371 L212.657435,82.6562354 Z M142.9994,76.9994 L142.9994,141.0006 L111,108.9988 L142.9994,76.9994 Z M201.343765,71.3425646 L159.0003,113.686029 L159.0003,60.9985 L175.0012,45 L201.343765,71.3425646 Z" id="path-1"></path>
        <mask id="mask-2" maskContentUnits="userSpaceOnUse" maskUnits="objectBoundingBox" x="0" y="0" width="128" height="128" fill="white">
            <use xlink:href="#path-1"></use>
        </mask>
        <path d="M86.6,304.072 L84.936,287.816 C111.688,285.512 114.76,284.616 115.144,270.152 C111.304,272.84 106.44,274.76 100.296,274.76 C87.112,274.76 77,264.52 77,248.392 C77,228.168 92.872,214.856 112.712,214.856 C119.368,214.856 126.28,216.008 132.936,218.056 C133.192,227.272 133.32,247.624 133.32,261.32 C133.32,286.152 124.616,302.152 86.6,304.072 Z M107.464,260.808 C110.024,260.808 112.584,260.424 115.144,259.528 L115.144,231.496 C111.944,230.6 109,230.088 106.056,230.088 C99.016,230.088 94.92,234.696 94.92,244.168 C94.92,255.688 100.552,260.808 107.464,260.808 Z M189,207.56 L190.152,189 L171.08,189 L169.928,207.56 L189,207.56 Z M208.456,281.288 L209.992,267.72 L189.128,267.72 L189.128,216.52 L150.856,216.52 L149.448,229.448 L170.824,230.472 L170.824,267.72 L149.96,267.72 L149.96,281.288 L208.456,281.288 Z M271.816,282.184 L273.736,267.336 C255.944,266.952 249.928,265.16 249.928,256.072 L249.928,230.216 L272.456,230.216 L272.456,216.52 L249.928,216.52 L249.928,197.96 L231.88,199.624 L231.88,216.52 L220.36,216.52 L218.824,230.216 L231.88,230.216 L231.88,258.888 C231.88,276.168 241.48,282.952 271.816,282.184 Z" id="path-3"></path>
        <mask id="mask-4" maskContentUnits="userSpaceOnUse" maskUnits="objectBoundingBox" x="0" y="0" width="196.736" height="115.072" fill="white">
            <use xlink:href="#path-3"></use>
        </mask>
    </defs>
    <g id="git.com" stroke="none" stroke-width="1" fill="none" fill-rule="evenodd">
        <g id="stacked-lockup">
            <use id="Page-1" stroke="#171219" mask="url(#mask-2)" stroke-width="2" xlink:href="#path-1"></use>
            <use id="git" stroke="#171219" mask="url(#mask-4)" stroke-width="2" xlink:href="#path-3"></use>
            <circle id="fork-copy" fill-opacity="0.3" fill="#77C6F5" cx="175" cy="109" r="8"></circle>
            <circle id="fork-copy-2" fill-opacity="0.3" fill="#77C6F5" cx="175" cy="181" r="8"></circle>
        </g>
    </g>
</svg>