<?xml version="1.0" encoding="UTF-8"?>
<svg width="200px" height="50px" viewBox="0 0 200 50" version="1.1" xmlns="http://www.w3.org/2000/svg" xmlns:xlink="http://www.w3.org/1999/xlink">
    <!-- Generator: Sketch 42 (36781) - http://www.bohemiancoding.com/sketch -->
    <title>apple</title>
    <desc>Created with Sketch.</desc>
    <defs></defs>
    <g id="git.com" stroke="none" stroke-width="1" fill="none" fill-rule="evenodd">
        <g id="apple" fill-rule="nonzero" fill="#42A5E8">
            <path d="M115.134512,35.4847561 C114.566829,36.7962195 113.894878,38.0034146 113.116341,39.1132927 C112.055122,40.6263415 111.18622,41.6736585 110.516585,42.2552439 C109.478537,43.209878 108.366341,43.6987805 107.175366,43.7265854 C106.320366,43.7265854 105.289268,43.4832927 104.089024,42.9897561 C102.884841,42.4985366 101.778207,42.2552439 100.766341,42.2552439 C99.705122,42.2552439 98.5669756,42.4985366 97.3495854,42.9897561 C96.1303415,43.4832927 95.1481341,43.7404878 94.3971707,43.7659756 C93.2550854,43.8146341 92.1167073,43.3118293 90.9804146,42.2552439 C90.2551707,41.6226829 89.3480366,40.5382927 88.2613293,39.0020732 C87.095378,37.3615854 86.1368049,35.4592683 85.3858415,33.2904878 C84.5815854,30.9479268 84.1784146,28.6795122 84.1784146,26.4833902 C84.1784146,23.9677439 84.722,21.7980366 85.8107927,19.9798293 C86.6664878,18.519378 87.8048659,17.3673293 89.2296341,16.5215976 C90.6544024,15.6758659 92.1938659,15.2448902 93.8517317,15.2173171 C94.7588659,15.2173171 95.9484512,15.4979146 97.4267439,16.049378 C98.9008659,16.6026951 99.8473902,16.8832927 100.262378,16.8832927 C100.572634,16.8832927 101.624122,16.5551951 103.406646,15.9010854 C105.092317,15.2944756 106.515,15.0433049 107.680488,15.1422439 C110.838659,15.397122 113.211341,16.6420854 114.789268,18.8850122 C111.964756,20.5964024 110.567561,22.9934146 110.595366,26.0684024 C110.620854,28.463561 111.489756,30.4567073 113.197439,32.0392683 C113.971341,32.7737805 114.83561,33.3414634 115.797195,33.7446341 C115.588659,34.3493902 115.368537,34.9286585 115.134512,35.4847561 L115.134512,35.4847561 Z M107.891341,6.98243902 C107.891341,8.85975488 107.205488,10.6125976 105.838415,12.2350122 C104.188659,14.1637439 102.193195,15.2782561 100.02928,15.1023902 C100.001707,14.8771707 99.9857195,14.6401341 99.9857195,14.3910488 C99.9857195,12.5888293 100.77028,10.6600976 102.163537,9.08309756 C102.859122,8.28463415 103.74378,7.62072317 104.816585,7.09110976 C105.887073,6.56939756 106.899634,6.28087561 107.851951,6.23147561 C107.879756,6.4824378 107.891341,6.73342317 107.891341,6.98241585 L107.891341,6.98243902 Z" id="Shape"></path>
        </g>
    </g>
</svg>