<?xml version="1.0" encoding="UTF-8"?>
<svg width="200px" height="50px" viewBox="0 0 200 50" version="1.1" xmlns="http://www.w3.org/2000/svg" xmlns:xlink="http://www.w3.org/1999/xlink">
    <!-- Generator: Sketch 42 (36781) - http://www.bohemiancoding.com/sketch -->
    <title>eclipse</title>
    <desc>Created with Sketch.</desc>
    <defs></defs>
    <g id="git.com" stroke="none" stroke-width="1" fill="none" fill-rule="evenodd">
        <g id="eclipse" fill-rule="nonzero" fill="#2C3041">
            <path d="M89.9024503,31.0569907 L82.730593,31.0569907 C83.6801922,34.314226 85.4422671,37.233602 88.0219505,39.8138354 C92.1345585,43.92681 97.0798072,45.9807308 102.86283,45.9807308 C104.018848,45.9807308 105.138935,45.8945702 106.226758,45.7304986 C110.582632,45.0729286 114.396427,43.1035185 117.664112,39.8138354 C120.260294,37.2345186 122.034835,34.314226 122.991767,31.0569907 L89.9024503,31.0569907 L89.9024503,31.0569907 Z M85.9478645,21.3164491 L82.2013473,21.3164491 C82.0616559,22.1522105 81.970576,22.9953733 81.9285666,23.8416865 L123.798743,23.8416865 C123.756029,22.980081 123.662536,22.1395574 123.524312,21.3164491 L85.9478645,21.3164491 Z M81.9285666,26.1867199 C81.9709136,27.0488754 82.063857,27.8892157 82.2013473,28.7119572 L123.525046,28.7119572 C123.665734,27.876275 123.75755,27.0330968 123.800026,26.1867199 L81.9285666,26.1867199 Z M122.992684,18.9708657 L82.7294931,18.9708657 C83.678359,15.7046477 85.4415338,12.7715227 88.0221339,10.1735072 C92.1343751,6.09004721 97.0799906,4.04730895 102.863013,4.04730895 C104.000223,4.0464335 105.135877,4.13136859 106.260305,4.30139091 C110.602247,4.95914419 114.405043,6.91443866 117.664112,10.1733239 C120.261761,12.7715227 122.036668,15.7046477 122.992684,18.9708657 Z M80.6834551,25.0149365 L80.6834551,25.0149365 C80.6834551,36.0759342 88.9904318,45.2663315 99.7989975,46.8826667 C99.5298832,46.892566 99.2605857,46.902832 98.988905,46.902832 C86.861533,46.902832 77.0300645,37.1036279 77.0300645,25.0149365 C77.0300645,12.926795 86.8618996,3.12685766 98.988905,3.12667434 C99.2596691,3.12667434 99.52915,3.13749024 99.7971642,3.14720621 C88.9904318,4.76372474 80.6834551,13.9539387 80.6834551,25.0149365 Z" id="Combined-Shape"></path>
        </g>
    </g>
</svg>