<?xml version="1.0" encoding="UTF-8"?>
<svg width="100px" height="44px" viewBox="0 0 100 44" version="1.1" xmlns="http://www.w3.org/2000/svg" xmlns:xlink="http://www.w3.org/1999/xlink">
    <!-- Generator: Sketch 42 (36781) - http://www.bohemiancoding.com/sketch -->
    <title>git</title>
    <desc>Created with Sketch.</desc>
    <defs></defs>
    <g id="git.com" stroke="none" stroke-width="1" fill="none" fill-rule="evenodd">
        <g id="git">
            <path d="M32.4143588,15.4140588 L39,21.9997 L23.0003,38 L19.000075,33.999775 L19.000075,28.8283427 L32.4143588,15.4140588 Z M14.99985,13.99985 L14.99985,30.00015 L7,21.9997 L14.99985,13.99985 Z M29.5859412,12.5856412 L19.000075,23.1715073 L19.000075,9.999625 L23.0003,6 L29.5859412,12.5856412 Z" id="Page-1" fill="#E15B39"></path>
            <path d="M46.908,36.196 L46.492,32.132 C53.18,31.556 53.948,31.332 54.044,27.716 C53.084,28.388 51.868,28.868 50.332,28.868 C47.036,28.868 44.508,26.308 44.508,22.276 C44.508,17.22 48.476,13.892 53.436,13.892 C55.1,13.892 56.828,14.18 58.492,14.692 C58.556,16.996 58.588,22.084 58.588,25.508 C58.588,31.716 56.412,35.716 46.908,36.196 Z M52.124,25.38 C52.764,25.38 53.404,25.284 54.044,25.06 L54.044,18.052 C53.244,17.828 52.508,17.7 51.772,17.7 C50.012,17.7 48.988,18.852 48.988,21.22 C48.988,24.1 50.396,25.38 52.124,25.38 Z M72.508,12.068 L72.796,7.428 L68.028,7.428 L67.74,12.068 L72.508,12.068 Z M77.372,30.5 L77.756,27.108 L72.54,27.108 L72.54,14.308 L62.972,14.308 L62.62,17.54 L67.964,17.796 L67.964,27.108 L62.748,27.108 L62.748,30.5 L77.372,30.5 Z M93.212,30.724 L93.692,27.012 C89.244,26.916 87.74,26.468 87.74,24.196 L87.74,17.732 L93.372,17.732 L93.372,14.308 L87.74,14.308 L87.74,9.668 L83.228,10.084 L83.228,14.308 L80.348,14.308 L79.964,17.732 L83.228,17.732 L83.228,24.9 C83.228,29.22 85.628,30.916 93.212,30.724 Z" fill="#171219"></path>
        </g>
    </g>
</svg>