<?xml version="1.0" encoding="UTF-8"?>
<svg width="200px" height="50px" viewBox="0 0 200 50" version="1.1" xmlns="http://www.w3.org/2000/svg" xmlns:xlink="http://www.w3.org/1999/xlink">
    <!-- Generator: Sketch 42 (36781) - http://www.bohemiancoding.com/sketch -->
    <title>kde</title>
    <desc>Created with Sketch.</desc>
    <defs></defs>
    <g id="git.com" stroke="none" stroke-width="1" fill="none" fill-rule="evenodd">
        <g id="kde" fill="#42A5E8">
            <path d="M82.5761729,3 L117.620258,3 C120.137382,3 122.196429,5.05923929 122.196429,7.57617286 L122.196429,42.3920804 C122.196429,44.9088214 120.137382,46.9682532 117.620256,46.9682532 L82.5761729,46.9682532 C80.0590468,46.9682532 78,44.9088214 78,42.3920804 L78,7.57617286 C78,5.05923929 80.0590468,3 82.5761729,3 Z M82.9045759,4.96428571 C81.179497,4.96428571 79.7678572,6.37582732 79.7678571,8.10100446 L79.7678571,42.1383929 C79.7678571,43.8634738 81.1794948,45.2873864 82.9045759,45.2873884 L117.169085,45.2873884 C118.894166,45.2873884 120.305804,43.8634757 120.305804,42.1383929 L120.305804,8.10100446 C120.305804,6.37582732 118.894164,4.96428566 117.169085,4.96428571 L82.9045759,4.96428571 Z M82.9720982,6.32087054 L117.101562,6.32087054 C118.111327,6.32087054 118.930806,7.14878573 118.930804,8.16852679 L118.930804,42.0892857 C118.930804,43.0994354 118.111327,43.9185268 117.101562,43.9185268 L82.9720982,43.9185268 C81.9622373,43.9185268 81.1428569,43.0994354 81.1428571,42.0892857 L81.1428571,8.16852679 C81.1428571,7.14878554 81.9622375,6.32087054 82.9720982,6.32087054 Z M96.6607143,32.1566943 L102.216056,31.3201463 L102.216056,21.4630384 L109.68341,32.3958991 L115.53752,30.5436405 L107.890999,20.0293396 L115.597369,10.1126707 L109.623945,8.73920482 L102.216056,18.655587 L102.275521,8.5 L96.6607143,9.03749339 L96.6607143,32.1566943 Z M110.088353,33.9118293 L109.603228,34.0652892 C109.532445,34.0875406 109.455331,34.0610699 109.413706,33.9994934 C109.413706,33.9994934 108.456692,32.5989813 107.220956,30.7904576 C105.743713,33.6816406 102.738202,35.6620393 99.2675179,35.6620393 C94.3365655,35.6620393 90.3388414,31.664219 90.3388414,26.7329799 C90.3388414,23.1053822 92.5026259,19.9856388 95.608747,18.5881006 L95.608747,16.2847615 C95.0434393,16.4825336 94.4970261,16.7208742 93.9779479,17.0036252 C93.9774686,17.0032422 93.9767968,17.0022817 93.9753589,17.0015156 L89.7694107,14.2430751 C89.656042,14.1690313 89.5068034,14.1843763 89.4115611,14.2802884 L87.207878,16.4835884 C87.1152266,16.5765267 87.09777,16.7208761 87.1660604,16.8333806 L89.7460082,21.0823958 C89.2884102,21.8517083 88.9219295,22.6812556 88.6597995,23.5562643 L83.9231661,24.5414774 C83.7913821,24.5688124 83.6964286,24.6855381 83.6964286,24.8207752 L83.6964286,27.9366804 C83.6964286,28.0684643 83.7863948,28.1825992 83.913382,28.2132911 L88.5106552,29.3370001 C88.7558079,30.3504104 89.1358127,31.3112604 89.6379136,32.1942304 L86.9770155,36.2520911 C86.9027793,36.3654599 86.9183168,36.5148909 87.0142289,36.6104201 L89.2172402,38.8137201 C89.3098916,38.906179 89.4545279,38.9240186 89.5675116,38.8561133 L93.7373032,36.3236422 C94.5563946,36.7962984 95.4397477,37.1682458 96.3733589,37.4204954 L97.3461989,42.0983338 C97.3736302,42.2308838 97.4909314,42.3252618 97.6253043,42.3252618 L100.741689,42.3252618 C100.872705,42.3252618 100.986841,42.2358711 101.018109,42.1073479 L102.164262,37.4197254 C103.126646,37.1599938 104.036855,36.772892 104.875897,36.2787524 L108.985169,38.9733163 C109.098155,39.0477451 109.247394,39.0327811 109.343306,38.936869 L111.546989,36.733569 C111.640216,36.640342 111.657097,36.4962813 111.588614,36.3840636 L110.088353,33.9118293 Z" id="Combined-Shape"></path>
        </g>
    </g>
</svg>