<?xml version="1.0" encoding="UTF-8"?>
<svg width="200px" height="50px" viewBox="0 0 200 50" version="1.1" xmlns="http://www.w3.org/2000/svg" xmlns:xlink="http://www.w3.org/1999/xlink">
    <!-- Generator: Sketch 42 (36781) - http://www.bohemiancoding.com/sketch -->
    <title>linkedin</title>
    <desc>Created with Sketch.</desc>
    <defs></defs>
    <g id="git.com" stroke="none" stroke-width="1" fill="none" fill-rule="evenodd">
        <g id="linkedin" fill="#2C3041">
            <polygon id="Fill-1" points="41 14.436875 45.628125 14.436875 45.628125 31.2928958 54.19625 31.2928958 54.19625 35.5631042 41 35.5631042"></polygon>
            <path d="M58.4645,14.12375 C59.888875,14.12375 61.0449167,15.2797917 61.0449167,16.7029167 C61.0449167,18.1285417 59.888875,19.2813333 58.4645,19.2813333 C57.0417917,19.2813333 55.88575,18.1285417 55.88575,16.7029167 C55.88575,15.2797917 57.0417917,14.12375 58.4645,14.12375 L58.4645,14.12375 Z M56.2403333,21.2405 L60.6886667,21.2405 L60.6886667,35.557375 L56.2403333,35.557375 L56.2403333,21.2405 Z" id="Fill-2"></path>
            <polygon id="Fill-3" points="79.2822917 14.4354167 83.72875 14.4354167 83.72875 27.0618958 88.7660417 21.2341875 94.2175 21.2341875 88.38375 27.8629375 94.095625 35.5631458 88.5060417 35.5631458 83.7866667 28.4858542 83.72875 28.4858542 83.72875 35.5631458 79.2822917 35.5631458"></polygon>
            <path d="M63.14875,21.2425833 L67.4185417,21.2425833 L67.4185417,23.1996667 L67.478125,23.1996667 C68.070625,22.0727917 69.5239583,20.8871667 71.6883333,20.8871667 C76.19625,20.8871667 77.02625,23.8521667 77.02625,27.706125 L77.02625,35.557375 L72.578125,35.557375 L72.578125,28.5963333 C72.578125,26.9352917 72.5475,24.801125 70.2639583,24.801125 C67.9516667,24.801125 67.596875,26.6102917 67.596875,28.4775833 L67.596875,35.557375 L63.14875,35.557375 L63.14875,21.2425833 Z" id="Fill-4"></path>
            <path d="M107.345208,33.0789167 C105.921667,34.8880833 103.580417,35.9268333 101.266042,35.9268333 C96.8191667,35.9268333 93.260625,32.9601667 93.260625,28.364125 C93.260625,23.7687083 96.8191667,20.8037083 101.266042,20.8037083 C105.420833,20.8037083 108.027708,23.7687083 108.027708,28.364125 L108.027708,29.757875 L97.70875,29.757875 C98.061875,31.4482917 99.3389583,32.545375 101.059167,32.545375 C102.512708,32.545375 103.490417,31.8037083 104.232083,30.7955833 L107.345208,33.0789167 Z M103.580417,26.7345417 C103.609375,25.2518333 102.453125,24.0062083 100.850208,24.0062083 C98.894375,24.0062083 97.8260417,25.3405833 97.70875,26.7345417 L103.580417,26.7345417 Z" id="Fill-5"></path>
            <path d="M124.944792,35.5553125 L120.851875,35.5553125 L120.851875,33.6567708 L120.794167,33.6567708 C120.109792,34.6942708 118.391458,35.9109375 116.374583,35.9109375 C112.103333,35.9109375 109.286667,32.8282292 109.286667,28.4686458 C109.286667,24.4651042 111.777292,20.7882292 115.869375,20.7882292 C117.709375,20.7882292 119.428542,21.2919792 120.437083,22.6857292 L120.495208,22.6857292 L120.495208,14.4354167 L124.944792,14.4354167 L124.944792,35.5553125 Z M117.291667,24.7026042 C115.069167,24.7026042 113.735,26.1863542 113.735,28.3492708 C113.735,30.5157292 115.069167,31.9963542 117.291667,31.9963542 C119.516875,31.9963542 120.851875,30.5157292 120.851875,28.3492708 C120.851875,26.1863542 119.516875,24.7026042 117.291667,24.7026042 L117.291667,24.7026042 Z" id="Fill-6"></path>
            <path d="M157.173333,10 C158.397083,10 159.393958,10.9683333 159.393958,12.1616667 L159.393958,37.835625 C159.393958,39.0302083 158.397083,40 157.173333,40 L131.6075,40 C130.385833,40 129.393125,39.0302083 129.393125,37.835625 L129.393125,12.1616667 C129.393125,10.9683333 130.385833,10 131.6075,10 L157.173333,10 Z M136.067083,14.1302083 C134.640833,14.1302083 133.486458,15.28625 133.486458,16.709375 C133.486458,18.13375 134.640833,19.2898333 136.067083,19.2898333 C137.489583,19.2898333 138.645625,18.13375 138.645625,16.709375 C138.645625,15.28625 137.489583,14.1302083 136.067083,14.1302083 Z M133.841042,21.2469167 L133.841042,35.5637917 L138.290833,35.5637917 L138.290833,21.2469167 L133.841042,21.2469167 Z M141.082083,21.2469583 L141.082083,35.5638333 L145.527917,35.5638333 L145.527917,28.4815417 C145.527917,26.61425 145.883333,24.8057083 148.198542,24.8057083 C150.480208,24.8057083 150.510833,26.9413333 150.510833,28.6015417 L150.510833,35.5638333 L154.9575,35.5638333 L154.9575,27.7109167 C154.9575,23.8565417 154.125417,20.891125 149.619583,20.891125 C147.455,20.891125 146.003542,22.0775833 145.409375,23.2032083 L145.349792,23.2032083 L145.349792,21.2469583 L141.082083,21.2469583 Z" id="Combined-Shape"></path>
        </g>
    </g>
</svg>