<?xml version="1.0" encoding="UTF-8"?>
<svg width="200px" height="50px" viewBox="0 0 200 50" version="1.1" xmlns="http://www.w3.org/2000/svg" xmlns:xlink="http://www.w3.org/1999/xlink">
    <!-- Generator: Sketch 42 (36781) - http://www.bohemiancoding.com/sketch -->
    <title>postgres</title>
    <desc>Created with Sketch.</desc>
    <defs></defs>
    <g id="git.com" stroke="none" stroke-width="1" fill="none" fill-rule="evenodd">
        <g id="postgres" fill-rule="nonzero" fill="#2C3041">
            <path d="M121.501333,29.3476667 C122.247667,31.607 119.077833,33.2805 118.088667,33.7395 C116.836833,34.321 114.7985,34.6745 113.1315,34.5985 L113.054333,34.5933333 L112.754833,34.567 L112.728167,34.794 C112.715333,34.9045 112.702,35.0205 112.6875,35.142 C112.575667,39.4375 111.957667,42.1636667 110.686333,43.9736667 C109.341667,45.8883333 107.482833,46.4226667 105.846167,46.7735 C105.387,46.8718333 104.8635,46.9438333 104.314833,46.9438333 C103.220833,46.9438333 102.026333,46.658 101.038833,45.7258333 C100.085167,44.826 99.7103333,43.677 99.4861667,42.9906667 C99.4511667,42.8828333 99.418,42.7811667 99.3933333,42.7145 C98.944,41.5018333 98.7923333,39.7686667 98.7028333,37.5396667 C98.6896667,37.21 98.6796667,36.8575 98.6696667,36.498 C98.6636667,36.2763333 98.6565,36.0196667 98.6471667,35.751 C97.1366667,36.4133333 95.3661667,36.5315 93.476,36.059 C92.9515,35.9278333 92.4263333,35.7065 91.9968333,35.4356667 C91.6586667,35.2221667 91.4038333,34.9923333 91.2128333,34.761 C89.706,36.016 88.2733333,35.832 87.4848333,35.5693333 C86.078,35.1 84.8248333,33.7931667 83.6536667,31.574 C82.8278333,30.009 82.0295,27.972 81.2808333,25.519 C79.9781667,21.2513333 79.1508333,16.7513333 79.0768333,15.2723333 C78.8438333,10.614 80.1036667,7.27866667 82.8213333,5.359 C85.0656667,3.7735 88.134,3.2865 91.941,3.9115 C93.5596667,4.17716667 94.9613333,4.5935 95.8346667,4.88883333 C97.4121667,3.95266667 99.2583333,3.49716667 101.347833,3.5305 C102.4625,3.5485 103.524833,3.64583333 104.512833,3.82016667 C105.574,3.49116667 107.608167,3.03366667 109.925333,3.062 C114.269,3.11383333 117.8695,4.80783333 120.337333,7.96116667 C121.269833,9.1525 122.067833,11.7863333 120.5745,17.5678333 C119.651,21.1433333 118.046833,24.9416667 116.074,28.2725 C116.596667,28.2578333 117.312833,28.182 118.278167,27.9828333 C118.832,27.8686667 119.3,27.8426667 119.708667,27.9036667 C120.575333,28.0331667 121.2455,28.5728333 121.501333,29.3476667 Z M120.300333,29.6708333 C120.111333,29.0993333 119.503,28.9155 118.492333,29.1241667 C115.4915,29.7435 114.416833,29.3145 114.064,29.0546667 C116.3965,25.5013333 118.315333,21.206 119.3505,17.1985 C119.840833,15.3001667 120.111667,13.5371667 120.133833,12.1001667 C120.158333,10.523 119.889667,9.364 119.335667,8.656 C117.102,5.80183333 113.823667,4.27083333 109.855333,4.22883333 C107.127167,4.19816667 104.822167,4.89633333 104.375333,5.09266667 C103.434333,4.85866667 102.4085,4.715 101.291667,4.69666667 C99.2436667,4.6635 97.4733333,5.15383333 96.0076667,6.15333333 C95.371,5.91633333 93.7256667,5.3515 91.7135,5.02733333 C88.2348333,4.46733333 85.4705,4.89166667 83.4978333,6.28916667 C81.144,7.95683333 80.0573333,10.9378333 80.2678333,15.1491667 C80.3386667,16.566 81.146,20.9246667 82.42,25.0988333 C84.097,30.5928333 85.92,33.703 87.838,34.3428333 C88.0625,34.4176667 88.3213333,34.47 88.6068333,34.47 C89.3065,34.47 90.1643333,34.1546667 91.0568333,33.0816667 C92.1454272,31.7757588 93.2715077,30.501561 94.4336667,29.2606667 C95.1876667,29.6653333 96.016,29.8913333 96.8631667,29.914 C96.8648333,29.9361667 96.867,29.9583333 96.869,29.9803333 C96.7231709,30.1542303 96.5803716,30.3306458 96.4406667,30.5095 C95.8536667,31.2546667 95.7315,31.4098333 93.842,31.7988333 C93.3045,31.9098333 91.877,32.204 91.856,33.2046667 C91.8333333,34.298 93.5435,34.7571667 93.7383333,34.8058333 C94.4173333,34.9758333 95.0715,35.0596667 95.6953333,35.0596667 C97.2125,35.0596667 98.5476667,34.561 99.6146667,33.5961667 C99.5818333,37.4938333 99.7443333,41.3345 100.212333,42.5046667 C100.595667,43.4626667 101.532,45.8038333 104.489667,45.8036667 C104.923667,45.8036667 105.401333,45.7531667 105.926833,45.6405 C109.013667,44.9788333 110.354167,43.6145 110.872667,40.6066667 C111.150167,38.9991667 111.626333,35.1606667 111.850333,33.1016667 C112.323,33.2491667 112.9315,33.3166667 113.589333,33.3165 C114.961333,33.3165 116.5445,33.025 117.537333,32.5641667 C118.652667,32.0461667 120.665333,30.7751667 120.300333,29.6708333 L120.300333,29.6708333 Z M112.949333,15.7575 C112.939167,16.3653333 112.8555,16.9171667 112.766833,17.4931667 C112.671333,18.1126667 112.572667,18.7531667 112.547833,19.5306667 C112.523333,20.2873333 112.617833,21.074 112.709167,21.8348333 C112.893833,23.3715 113.083333,24.9535 112.349833,26.5145 C112.22799,26.2986064 112.119454,26.0754682 112.024833,25.8463333 C111.933667,25.6253333 111.735667,25.2703333 111.4615,24.779 C110.395,22.8663333 107.8975,18.3873333 109.176,16.5596667 C109.556833,16.0156667 110.523333,15.4563333 112.949333,15.7575 L112.949333,15.7575 Z M110.008667,5.45966667 C113.564333,5.53816667 116.377,6.86833333 118.368333,9.413 C119.895667,11.3648333 118.213833,20.246 113.345,27.9078333 C113.296036,27.8455732 113.246814,27.7835172 113.197333,27.7216667 L113.135667,27.6446667 C114.393833,25.5668333 114.147833,23.511 113.928833,21.6883333 C113.838833,20.9403333 113.753833,20.2338333 113.7755,19.5701667 C113.797833,18.8668333 113.890833,18.2635 113.980833,17.6801667 C114.091333,16.9613333 114.203833,16.2175 114.172833,15.3406667 C114.196,15.2486667 114.205333,15.14 114.193167,15.011 C114.114,14.1701667 113.154,11.6536667 111.197333,9.376 C110.127,8.13016667 108.566167,6.736 106.435,5.79566667 C107.351667,5.60566667 108.605167,5.4285 110.008667,5.45966667 L110.008667,5.45966667 Z M90.1123333,32.2963333 C89.129,33.4786667 88.45,33.252 88.2266667,33.1776667 C86.7716667,32.6923333 85.0833333,29.617 83.5948333,24.7403333 C82.3068333,20.5206667 81.5541667,16.2775 81.4945,15.0876667 C81.3065,11.3246667 82.2186667,8.70216667 84.2058333,7.29283333 C87.4398333,4.9995 92.7568333,6.37216667 94.8933333,7.06833333 C94.8626667,7.09866667 94.8306667,7.127 94.8003333,7.15783333 C91.2943333,10.6985 91.3775,16.7478333 91.3861667,17.1176667 C91.3858333,17.2603333 91.3978333,17.4623333 91.4141667,17.7401667 C91.4745,18.7576667 91.5868333,20.6513333 91.2868333,22.7958333 C91.0081667,24.7886667 91.6225,26.7391667 92.972,28.1473333 C93.110497,28.2915732 93.2560648,28.428853 93.4081667,28.5586667 C92.8075,29.202 91.502,30.6246667 90.1123333,32.2963333 Z M93.8588333,27.2975 C92.7711667,26.1625 92.2771667,24.5838333 92.5033333,22.9658333 C92.82,20.7005 92.7031667,18.7275 92.6403333,17.6675 C92.6315,17.5191667 92.6236667,17.3891667 92.6191667,17.2866667 C93.1313333,16.8325 95.5048333,15.5608333 97.1975,15.9486667 C97.9698333,16.1255 98.4405,16.6515 98.6361667,17.5561667 C99.6488333,22.24 98.7701667,24.1921667 98.0641667,25.761 C97.9186667,26.0841667 97.7811667,26.3896667 97.6638333,26.7056667 L97.5728333,26.95 C97.3425,27.5676667 97.1281667,28.142 96.9953333,28.6873333 C95.839,28.684 94.7141667,28.19 93.8588333,27.2973333 L93.8588333,27.2975 Z M94.0363333,33.6141667 C93.6986667,33.5298333 93.395,33.3833333 93.2168333,33.2618333 C93.3656667,33.1918333 93.6305,33.0965 94.0898333,33.0018333 C96.3126667,32.5443333 96.656,32.2213333 97.4056667,31.2695 C97.5775,31.0511667 97.7723333,30.8038333 98.0421667,30.5025 L98.0425,30.5021667 C98.4443333,30.0521667 98.6281667,30.1285 98.9615,30.2668333 C99.2316667,30.3785 99.4948333,30.7171667 99.6015,31.0898333 C99.652,31.2658333 99.7086667,31.5998333 99.5231667,31.8598333 C97.9571667,34.0525 95.6751667,34.0243333 94.0363333,33.6141667 L94.0363333,33.6141667 Z M105.6695,44.4395 C102.950167,45.0221667 101.987333,43.6346667 101.352833,42.0485 C100.943333,41.0245 100.742,36.4068333 100.884833,31.3073333 C100.886667,31.2395 100.877,31.174 100.858333,31.1123333 C100.841636,30.9905617 100.816237,30.8701425 100.782333,30.752 C100.57,30.01 100.0525,29.3893333 99.4316667,29.132 C99.185,29.0298333 98.7323333,28.8423333 98.1883333,28.9815 C98.3043333,28.5035 98.5055,27.9636667 98.7236667,27.3791667 L98.8151667,27.1333333 C98.9181667,26.8561667 99.0475,26.569 99.1841667,26.265 C99.923,24.6236667 100.934833,22.3755 99.8366667,17.2966667 C99.4253333,15.3943333 98.0516667,14.4653333 95.9693333,14.6811667 C94.721,14.8103333 93.5788333,15.314 93.0091667,15.6028333 C92.8866667,15.6648333 92.7746667,15.7248333 92.67,15.7831667 C92.829,13.8665 93.4296667,10.2845 95.6766667,8.01816667 C97.0915,6.5915 98.9756667,5.88683333 101.271333,5.92483333 C105.794667,5.99883333 108.695333,8.32016667 110.332333,10.2546667 C111.743,11.9215 112.506833,13.6006667 112.811667,14.5063333 C110.519167,14.2731667 108.96,14.7256667 108.169667,15.8556667 C106.450167,18.3136667 109.110333,23.0843333 110.388833,25.3771667 C110.623333,25.7973333 110.825667,26.1605 110.889333,26.3148333 C111.305667,27.3238333 111.844667,27.9975 112.238167,28.4891667 C112.358833,28.6398333 112.475833,28.786 112.564833,28.9136667 C111.8705,29.1138333 110.623333,29.5763333 110.737,31.8881667 C110.645333,33.0481667 109.9935,38.4791667 109.662333,40.398 C109.225167,42.933 108.292333,43.8771667 105.6695,44.4396667 L105.6695,44.4395 Z M117.020167,31.4501667 C116.310167,31.7796667 115.122,32.0268333 113.993333,32.08 C112.746667,32.1383333 112.112,31.9403333 111.962667,31.8185 C111.892667,30.3778333 112.428833,30.2273333 112.996333,30.068 C113.0855,30.043 113.1725,30.0185 113.2565,29.9891667 C113.308667,30.0316667 113.365833,30.0738333 113.4285,30.1151667 C114.4305,30.7765 116.217667,30.8478333 118.740833,30.327 L118.7685,30.3215 C118.428167,30.6396667 117.845833,31.0666667 117.020167,31.4501667 Z M97.0126667,16.5875 C96.566,16.5253333 96.1615,16.5828333 95.9568333,16.7378333 C95.8418333,16.825 95.8061667,16.926 95.7965,16.9955 C95.7708333,17.1796667 95.8998333,17.3833333 95.9791667,17.4883333 C96.2035,17.7856667 96.5311667,17.99 96.8555,18.035 C96.9025,18.0416667 96.9493333,18.0446667 96.9958333,18.0446667 C97.5366667,18.0446667 98.0285,17.6235 98.0718333,17.3126667 C98.126,16.9233333 97.5608333,16.6638333 97.0126667,16.5876667 L97.0126667,16.5875 Z M111.81,16.5998333 C111.767333,16.2946667 111.224333,16.2076667 110.709,16.2793333 C110.194333,16.351 109.695333,16.5833333 109.737,16.8891667 C109.770333,17.127 110.199833,17.533 110.708167,17.533 C110.751167,17.533 110.7945,17.5301667 110.838167,17.524 C111.1775,17.477 111.4265,17.2615 111.544833,17.1373333 C111.724833,16.948 111.829167,16.737 111.81,16.5998333 Z" id="Combined-Shape"></path>
        </g>
    </g>
</svg>