<?xml version="1.0" encoding="UTF-8"?>
<svg width="200px" height="50px" viewBox="0 0 200 50" version="1.1" xmlns="http://www.w3.org/2000/svg" xmlns:xlink="http://www.w3.org/1999/xlink">
    <!-- Generator: Sketch 42 (36781) - http://www.bohemiancoding.com/sketch -->
    <title>uber</title>
    <desc>Created with Sketch.</desc>
    <defs></defs>
    <g id="git.com" stroke="none" stroke-width="1" fill="none" fill-rule="evenodd">
        <g id="uber" fill-rule="nonzero" fill="#42A5E8">
            <path d="M63.5540984,14.5305246 L63.5540984,26.6420656 C63.5540984,30.686459 61.7638033,32.3660328 57.5646885,32.3660328 C53.3652131,32.3660328 51.574918,30.686459 51.574918,26.6420656 L51.574918,14 L47.5305246,14 C47.177082,14 47,14.177082 47,14.5305246 L47,26.8407869 C47,33.6041639 51.3098361,35.9689836 57.5646885,35.9689836 C63.8191803,35.9689836 68.1290164,33.6041639 68.1290164,26.8407869 L68.1290164,14 L64.0842623,14 C63.7308197,14 63.5540984,14.177082 63.5540984,14.5305246" id="Fill-1"></path>
            <path d="M122.185541,17.5142295 C122.516984,17.5142295 122.671705,17.4038689 122.782066,17.1604262 L123.953836,14.265082 C124.020197,14.0887213 123.953836,14 123.776754,14 L107.488098,14 C105.962885,14 105.388721,14.4641639 105.388721,15.5028525 L105.388721,34.3110492 C105.388721,35.195377 105.830164,35.5931803 107.001934,35.5931803 L122.185541,35.5931803 C122.516984,35.5931803 122.671705,35.482459 122.782066,35.2397377 L123.953836,32.3440328 C124.020197,32.1673115 123.953836,32.0789508 123.776754,32.0789508 L109.875279,32.0789508 L109.875279,28.2552787 C109.875279,26.9291475 110.604525,26.3322623 112.57118,26.3322623 L118.605311,26.3322623 C118.936754,26.3322623 119.091115,26.2222623 119.201836,25.9791803 L120.329246,23.1941967 C120.395246,23.0171148 120.329246,22.9291148 120.152164,22.9291148 L109.875279,22.9291148 L109.875279,17.5142295 L122.185541,17.5142295" id="Fill-2"></path>
            <path d="M89.2674098,32.1233115 L81.286459,32.1233115 L81.286459,28.166918 C81.286459,26.8407869 82.0157049,26.2442623 83.983082,26.2442623 L89.2674098,26.2442623 C91.8089508,26.2442623 92.5161967,27.2165902 92.5161967,29.2059672 C92.5161967,31.1949836 91.8089508,32.1233115 89.2674098,32.1233115 Z M81.286459,17.4698689 L88.4274426,17.4698689 C90.8142623,17.4698689 91.4775082,18.3689836 91.4775082,20.2324918 C91.4775082,22.0963607 90.8142623,22.9954754 88.4274426,22.9954754 L81.286459,22.9954754 L81.286459,17.4698689 Z M93.5108852,24.2108852 C95.2788197,23.2825574 96.0080656,21.536623 96.0080656,19.4812459 C96.0080656,14.7072459 92.1183934,14 88.096,14 L78.9018033,14 C77.3765902,14 76.8024262,14.4641639 76.8024262,15.5028525 L76.8024262,34.3110492 C76.8024262,35.195377 77.2442295,35.5931803 78.4156393,35.5931803 L89.7315738,35.5931803 C93.9970492,35.5931803 97.0467541,33.9356066 97.0467541,29.6257705 C97.0467541,27.0398689 95.9417049,24.8517705 93.5108852,24.2108852 L93.5108852,24.2108852 Z" id="Fill-3"></path>
            <path d="M143.744459,24.0118033 L136.229836,24.0118033 L136.229836,17.4702295 L143.744459,17.4702295 C146.551082,17.4702295 147.169967,18.552918 147.169967,20.7410164 C147.169967,22.9511148 146.551082,24.0118033 143.744459,24.0118033 Z M152.187049,35.217377 L147.347049,26.9071475 C149.755869,26.288623 151.700885,24.6974098 151.700885,20.6526557 C151.700885,15.4148525 148.451738,14 143.081213,14 L133.843016,14 C132.318164,14 131.743279,14.4641639 131.743279,15.5028525 L131.743279,35.0626557 C131.743279,35.4160984 131.920361,35.5931803 132.273803,35.5931803 L136.229836,35.5931803 L136.229836,29.2943279 C136.229836,27.9681967 136.959082,27.3713115 138.926459,27.3713115 L142.904492,27.3713115 L147.280328,35.2397377 C147.413049,35.460459 147.54577,35.5931803 147.877213,35.5931803 L151.988328,35.5931803 C152.27577,35.5931803 152.27577,35.3497377 152.187049,35.217377 L152.187049,35.217377 Z" id="Fill-4"></path>
        </g>
    </g>
</svg>